M48
; DRILL file {KiCad 8.0.3} date 2024-07-18T14:58:56-0400
; FORMAT={-:-/ absolute / inch / decimal}
; #@! TF.CreationDate,2024-07-18T14:58:56-04:00
; #@! TF.GenerationSoftware,Kicad,Pcbnew,8.0.3
; #@! TF.FileFunction,Plated,1,2,PTH
FMAT,2
INCH
; #@! TA.AperFunction,Plated,PTH,ViaDrill
T1C0.0118
; #@! TA.AperFunction,Plated,PTH,ComponentDrill
T2C0.0118
; #@! TA.AperFunction,Plated,PTH,ComponentDrill
T3C0.0394
; #@! TA.AperFunction,Plated,PTH,ComponentDrill
T4C0.0551
; #@! TA.AperFunction,Plated,PTH,ComponentDrill
T5C0.1260
%
G90
G05
T1
X2.4764Y-4.1457
X2.4803Y-4.2638
X2.483Y-4.396
X2.5591Y-4.0906
X2.562Y-4.395
X2.638Y-4.394
X2.689Y-4.0906
X2.713Y-4.394
X2.8228Y-4.0906
X2.8583Y-4.3898
X2.9252Y-4.7126
X2.9331Y-4.3189
X3.0Y-4.0906
X3.0118Y-4.2638
X3.0157Y-4.7126
X3.165Y-4.132
X3.165Y-4.207
X4.2205Y-5.9961
X4.264Y-4.277
X4.265Y-4.785
X4.626Y-4.8661
X4.6378Y-4.4331
X4.6417Y-4.6535
X4.6814Y-4.795
X4.748Y-3.8976
X4.8189Y-5.0512
X4.8543Y-5.9528
X4.9016Y-4.9213
T2
X2.9404Y-4.4937
X2.9404Y-4.5371
X2.9404Y-4.5882
X2.9404Y-4.6355
X2.9876Y-4.4937
X2.9876Y-4.5371
X2.9876Y-4.5882
X2.9876Y-4.6355
T3
X3.864Y-4.363
X3.8656Y-4.7094
X3.964Y-4.363
X3.9656Y-4.7094
X4.064Y-4.363
X4.0656Y-4.7094
X4.164Y-4.363
X4.1656Y-4.7094
X4.264Y-4.363
X4.2656Y-4.7094
X4.364Y-4.363
X4.3656Y-4.7094
X4.464Y-4.363
X4.4656Y-4.7094
X4.564Y-4.363
X4.5656Y-4.7094
X4.7697Y-4.74
X4.7706Y-5.2221
X4.8697Y-4.74
X4.8706Y-5.2221
X4.8941Y-3.7911
X4.8941Y-3.8911
X4.8941Y-3.9911
X4.8941Y-4.0911
X4.8941Y-4.1911
X4.8941Y-4.2911
X4.8941Y-4.3911
X4.9697Y-4.74
X4.9706Y-5.2221
X5.0697Y-4.74
X5.0706Y-5.2221
X5.1697Y-4.74
X5.1706Y-5.2221
X5.2697Y-4.74
X5.2706Y-5.2221
X5.3697Y-4.74
X5.3706Y-5.2221
X5.4541Y-3.7911
X5.4541Y-3.8911
X5.4541Y-3.9911
X5.4541Y-4.0911
X5.4541Y-4.1911
X5.4541Y-4.2911
X5.4541Y-4.3911
X5.4697Y-4.74
X5.4697Y-4.842
X5.4697Y-4.942
X5.4706Y-5.2221
T4
X3.5709Y-5.6693
X3.5709Y-5.8661
X3.7677Y-5.6693
X3.7677Y-5.8661
X5.3543Y-5.6693
X5.3543Y-5.8661
X5.5512Y-5.6693
X5.5512Y-5.8661
T5
X2.486Y-3.8419
X2.486Y-6.0072
X5.8324Y-3.8419
X5.8324Y-6.0072
T3
G00X2.8122Y-5.517
M15
G01X2.9146Y-5.517
M16
G05
G00X2.8201Y-5.765
M15
G01X2.9067Y-5.765
M16
G05
G00X3.0524Y-5.5879
M15
G01X3.0524Y-5.6745
M16
G05
M30
