%TF.GenerationSoftware,KiCad,Pcbnew,8.0.3*%
%TF.CreationDate,2024-07-18T14:58:56-04:00*%
%TF.ProjectId,Drop_Gen_PCB,44726f70-5f47-4656-9e5f-5043422e6b69,rev?*%
%TF.SameCoordinates,Original*%
%TF.FileFunction,Soldermask,Bot*%
%TF.FilePolarity,Negative*%
%FSLAX46Y46*%
G04 Gerber Fmt 4.6, Leading zero omitted, Abs format (unit mm)*
G04 Created by KiCad (PCBNEW 8.0.3) date 2024-07-18 14:58:56*
%MOMM*%
%LPD*%
G01*
G04 APERTURE LIST*
%ADD10C,5.600000*%
%ADD11O,1.700000X1.700000*%
%ADD12R,1.700000X1.700000*%
%ADD13R,2.500000X2.500000*%
%ADD14C,2.500000*%
%ADD15R,4.600000X2.000000*%
%ADD16O,4.200000X2.000000*%
%ADD17O,2.000000X4.200000*%
G04 APERTURE END LIST*
D10*
%TO.C,H4*%
X148144200Y-152583000D03*
%TD*%
%TO.C,H3*%
X63144200Y-152583000D03*
%TD*%
%TO.C,H2*%
X63144200Y-97583000D03*
%TD*%
%TO.C,H1*%
X148144200Y-97583000D03*
%TD*%
D11*
%TO.C,U1*%
X124311000Y-96294800D03*
X124311000Y-98834800D03*
X124311000Y-101374800D03*
X124311000Y-103914800D03*
X124311000Y-106454800D03*
X124311000Y-108994800D03*
D12*
X124311000Y-111534800D03*
X138535000Y-111534800D03*
D11*
X138535000Y-108994800D03*
X138535000Y-106454800D03*
X138535000Y-103914800D03*
X138535000Y-101374800D03*
X138535000Y-98834800D03*
X138535000Y-96294800D03*
%TD*%
D12*
%TO.C,U2*%
X121172400Y-132642100D03*
D11*
X123712400Y-132642100D03*
X126252400Y-132642100D03*
X128792400Y-132642100D03*
X131332400Y-132642100D03*
X133872400Y-132642100D03*
X136412400Y-132642100D03*
X138952400Y-132642100D03*
D12*
X138931200Y-125526700D03*
D11*
X138931200Y-122986700D03*
X138930400Y-120395900D03*
X136390400Y-120395900D03*
X133850400Y-120395900D03*
X131310400Y-120395900D03*
X128770400Y-120395900D03*
X126230400Y-120395900D03*
X123690400Y-120395900D03*
D12*
X121150400Y-120395900D03*
%TD*%
D13*
%TO.C,J5*%
X95700000Y-149000000D03*
X95700000Y-144000000D03*
D14*
X90700000Y-149000000D03*
X90700000Y-144000000D03*
%TD*%
D13*
%TO.C,J4*%
X141000000Y-149000000D03*
X141000000Y-144000000D03*
D14*
X136000000Y-149000000D03*
X136000000Y-144000000D03*
%TD*%
D15*
%TO.C,J3*%
X72730600Y-140131800D03*
D16*
X72730600Y-146431800D03*
D17*
X77530600Y-143031800D03*
%TD*%
D11*
%TO.C,U3*%
X98187200Y-119617800D03*
X100727200Y-119617800D03*
X103267200Y-119617800D03*
X105807200Y-119617800D03*
X108347200Y-119617800D03*
X110887200Y-119617800D03*
X113427200Y-119617800D03*
D12*
X115967200Y-119617800D03*
X115925600Y-110820200D03*
D11*
X113385600Y-110820200D03*
X110845600Y-110820200D03*
X108305600Y-110820200D03*
X105765600Y-110820200D03*
X103225600Y-110820200D03*
X100685600Y-110820200D03*
X98145600Y-110820200D03*
%TD*%
M02*
