%TF.GenerationSoftware,KiCad,Pcbnew,8.0.3*%
%TF.CreationDate,2024-07-18T14:58:56-04:00*%
%TF.ProjectId,Drop_Gen_PCB,44726f70-5f47-4656-9e5f-5043422e6b69,rev?*%
%TF.SameCoordinates,Original*%
%TF.FileFunction,Legend,Bot*%
%TF.FilePolarity,Positive*%
%FSLAX46Y46*%
G04 Gerber Fmt 4.6, Leading zero omitted, Abs format (unit mm)*
G04 Created by KiCad (PCBNEW 8.0.3) date 2024-07-18 14:58:56*
%MOMM*%
%LPD*%
G01*
G04 APERTURE LIST*
%ADD10C,0.150000*%
%ADD11C,0.198120*%
%ADD12C,0.200000*%
%ADD13C,5.600000*%
%ADD14O,1.700000X1.700000*%
%ADD15R,1.700000X1.700000*%
%ADD16R,2.500000X2.500000*%
%ADD17C,2.500000*%
%ADD18R,4.600000X2.000000*%
%ADD19O,4.200000X2.000000*%
%ADD20O,2.000000X4.200000*%
G04 APERTURE END LIST*
D10*
X140619048Y-152073866D02*
X141380953Y-152073866D01*
D11*
X94385419Y-97343598D02*
X94385419Y-96149798D01*
X94385419Y-96149798D02*
X94101181Y-96149798D01*
X94101181Y-96149798D02*
X93930638Y-96206646D01*
X93930638Y-96206646D02*
X93816943Y-96320341D01*
X93816943Y-96320341D02*
X93760096Y-96434036D01*
X93760096Y-96434036D02*
X93703248Y-96661427D01*
X93703248Y-96661427D02*
X93703248Y-96831970D01*
X93703248Y-96831970D02*
X93760096Y-97059360D01*
X93760096Y-97059360D02*
X93816943Y-97173055D01*
X93816943Y-97173055D02*
X93930638Y-97286751D01*
X93930638Y-97286751D02*
X94101181Y-97343598D01*
X94101181Y-97343598D02*
X94385419Y-97343598D01*
X92736838Y-97286751D02*
X92850534Y-97343598D01*
X92850534Y-97343598D02*
X93077924Y-97343598D01*
X93077924Y-97343598D02*
X93191619Y-97286751D01*
X93191619Y-97286751D02*
X93248467Y-97173055D01*
X93248467Y-97173055D02*
X93248467Y-96718274D01*
X93248467Y-96718274D02*
X93191619Y-96604579D01*
X93191619Y-96604579D02*
X93077924Y-96547731D01*
X93077924Y-96547731D02*
X92850534Y-96547731D01*
X92850534Y-96547731D02*
X92736838Y-96604579D01*
X92736838Y-96604579D02*
X92679991Y-96718274D01*
X92679991Y-96718274D02*
X92679991Y-96831970D01*
X92679991Y-96831970D02*
X93248467Y-96945665D01*
X92225210Y-97286751D02*
X92111515Y-97343598D01*
X92111515Y-97343598D02*
X91884124Y-97343598D01*
X91884124Y-97343598D02*
X91770429Y-97286751D01*
X91770429Y-97286751D02*
X91713581Y-97173055D01*
X91713581Y-97173055D02*
X91713581Y-97116208D01*
X91713581Y-97116208D02*
X91770429Y-97002512D01*
X91770429Y-97002512D02*
X91884124Y-96945665D01*
X91884124Y-96945665D02*
X92054667Y-96945665D01*
X92054667Y-96945665D02*
X92168362Y-96888817D01*
X92168362Y-96888817D02*
X92225210Y-96775122D01*
X92225210Y-96775122D02*
X92225210Y-96718274D01*
X92225210Y-96718274D02*
X92168362Y-96604579D01*
X92168362Y-96604579D02*
X92054667Y-96547731D01*
X92054667Y-96547731D02*
X91884124Y-96547731D01*
X91884124Y-96547731D02*
X91770429Y-96604579D01*
X91201952Y-97343598D02*
X91201952Y-96547731D01*
X91201952Y-96149798D02*
X91258800Y-96206646D01*
X91258800Y-96206646D02*
X91201952Y-96263493D01*
X91201952Y-96263493D02*
X91145105Y-96206646D01*
X91145105Y-96206646D02*
X91201952Y-96149798D01*
X91201952Y-96149798D02*
X91201952Y-96263493D01*
X90121848Y-96547731D02*
X90121848Y-97514141D01*
X90121848Y-97514141D02*
X90178695Y-97627836D01*
X90178695Y-97627836D02*
X90235543Y-97684684D01*
X90235543Y-97684684D02*
X90349238Y-97741531D01*
X90349238Y-97741531D02*
X90519781Y-97741531D01*
X90519781Y-97741531D02*
X90633476Y-97684684D01*
X90121848Y-97286751D02*
X90235543Y-97343598D01*
X90235543Y-97343598D02*
X90462934Y-97343598D01*
X90462934Y-97343598D02*
X90576629Y-97286751D01*
X90576629Y-97286751D02*
X90633476Y-97229903D01*
X90633476Y-97229903D02*
X90690324Y-97116208D01*
X90690324Y-97116208D02*
X90690324Y-96775122D01*
X90690324Y-96775122D02*
X90633476Y-96661427D01*
X90633476Y-96661427D02*
X90576629Y-96604579D01*
X90576629Y-96604579D02*
X90462934Y-96547731D01*
X90462934Y-96547731D02*
X90235543Y-96547731D01*
X90235543Y-96547731D02*
X90121848Y-96604579D01*
X89553371Y-96547731D02*
X89553371Y-97343598D01*
X89553371Y-96661427D02*
X89496524Y-96604579D01*
X89496524Y-96604579D02*
X89382829Y-96547731D01*
X89382829Y-96547731D02*
X89212286Y-96547731D01*
X89212286Y-96547731D02*
X89098590Y-96604579D01*
X89098590Y-96604579D02*
X89041743Y-96718274D01*
X89041743Y-96718274D02*
X89041743Y-97343598D01*
X88018485Y-97286751D02*
X88132181Y-97343598D01*
X88132181Y-97343598D02*
X88359571Y-97343598D01*
X88359571Y-97343598D02*
X88473266Y-97286751D01*
X88473266Y-97286751D02*
X88530114Y-97173055D01*
X88530114Y-97173055D02*
X88530114Y-96718274D01*
X88530114Y-96718274D02*
X88473266Y-96604579D01*
X88473266Y-96604579D02*
X88359571Y-96547731D01*
X88359571Y-96547731D02*
X88132181Y-96547731D01*
X88132181Y-96547731D02*
X88018485Y-96604579D01*
X88018485Y-96604579D02*
X87961638Y-96718274D01*
X87961638Y-96718274D02*
X87961638Y-96831970D01*
X87961638Y-96831970D02*
X88530114Y-96945665D01*
X86938381Y-97343598D02*
X86938381Y-96149798D01*
X86938381Y-97286751D02*
X87052076Y-97343598D01*
X87052076Y-97343598D02*
X87279467Y-97343598D01*
X87279467Y-97343598D02*
X87393162Y-97286751D01*
X87393162Y-97286751D02*
X87450009Y-97229903D01*
X87450009Y-97229903D02*
X87506857Y-97116208D01*
X87506857Y-97116208D02*
X87506857Y-96775122D01*
X87506857Y-96775122D02*
X87450009Y-96661427D01*
X87450009Y-96661427D02*
X87393162Y-96604579D01*
X87393162Y-96604579D02*
X87279467Y-96547731D01*
X87279467Y-96547731D02*
X87052076Y-96547731D01*
X87052076Y-96547731D02*
X86938381Y-96604579D01*
X85062409Y-96718274D02*
X84891866Y-96775122D01*
X84891866Y-96775122D02*
X84835019Y-96831970D01*
X84835019Y-96831970D02*
X84778171Y-96945665D01*
X84778171Y-96945665D02*
X84778171Y-97116208D01*
X84778171Y-97116208D02*
X84835019Y-97229903D01*
X84835019Y-97229903D02*
X84891866Y-97286751D01*
X84891866Y-97286751D02*
X85005561Y-97343598D01*
X85005561Y-97343598D02*
X85460342Y-97343598D01*
X85460342Y-97343598D02*
X85460342Y-96149798D01*
X85460342Y-96149798D02*
X85062409Y-96149798D01*
X85062409Y-96149798D02*
X84948714Y-96206646D01*
X84948714Y-96206646D02*
X84891866Y-96263493D01*
X84891866Y-96263493D02*
X84835019Y-96377189D01*
X84835019Y-96377189D02*
X84835019Y-96490884D01*
X84835019Y-96490884D02*
X84891866Y-96604579D01*
X84891866Y-96604579D02*
X84948714Y-96661427D01*
X84948714Y-96661427D02*
X85062409Y-96718274D01*
X85062409Y-96718274D02*
X85460342Y-96718274D01*
X84380238Y-96547731D02*
X84096000Y-97343598D01*
X83811761Y-96547731D02*
X84096000Y-97343598D01*
X84096000Y-97343598D02*
X84209695Y-97627836D01*
X84209695Y-97627836D02*
X84266542Y-97684684D01*
X84266542Y-97684684D02*
X84380238Y-97741531D01*
X83356980Y-97229903D02*
X83300133Y-97286751D01*
X83300133Y-97286751D02*
X83356980Y-97343598D01*
X83356980Y-97343598D02*
X83413828Y-97286751D01*
X83413828Y-97286751D02*
X83356980Y-97229903D01*
X83356980Y-97229903D02*
X83356980Y-97343598D01*
X83356980Y-96604579D02*
X83300133Y-96661427D01*
X83300133Y-96661427D02*
X83356980Y-96718274D01*
X83356980Y-96718274D02*
X83413828Y-96661427D01*
X83413828Y-96661427D02*
X83356980Y-96604579D01*
X83356980Y-96604579D02*
X83356980Y-96718274D01*
X81878942Y-97343598D02*
X81878942Y-96149798D01*
X81196771Y-97343598D02*
X81708400Y-96661427D01*
X81196771Y-96149798D02*
X81878942Y-96831970D01*
X80173514Y-97343598D02*
X80173514Y-96718274D01*
X80173514Y-96718274D02*
X80230361Y-96604579D01*
X80230361Y-96604579D02*
X80344057Y-96547731D01*
X80344057Y-96547731D02*
X80571447Y-96547731D01*
X80571447Y-96547731D02*
X80685142Y-96604579D01*
X80173514Y-97286751D02*
X80287209Y-97343598D01*
X80287209Y-97343598D02*
X80571447Y-97343598D01*
X80571447Y-97343598D02*
X80685142Y-97286751D01*
X80685142Y-97286751D02*
X80741990Y-97173055D01*
X80741990Y-97173055D02*
X80741990Y-97059360D01*
X80741990Y-97059360D02*
X80685142Y-96945665D01*
X80685142Y-96945665D02*
X80571447Y-96888817D01*
X80571447Y-96888817D02*
X80287209Y-96888817D01*
X80287209Y-96888817D02*
X80173514Y-96831970D01*
X79775580Y-96547731D02*
X79320799Y-96547731D01*
X79605037Y-96149798D02*
X79605037Y-97173055D01*
X79605037Y-97173055D02*
X79548190Y-97286751D01*
X79548190Y-97286751D02*
X79434495Y-97343598D01*
X79434495Y-97343598D02*
X79320799Y-97343598D01*
X78922866Y-97343598D02*
X78922866Y-96149798D01*
X78411238Y-97343598D02*
X78411238Y-96718274D01*
X78411238Y-96718274D02*
X78468085Y-96604579D01*
X78468085Y-96604579D02*
X78581781Y-96547731D01*
X78581781Y-96547731D02*
X78752324Y-96547731D01*
X78752324Y-96547731D02*
X78866019Y-96604579D01*
X78866019Y-96604579D02*
X78922866Y-96661427D01*
X77331133Y-97343598D02*
X77331133Y-96718274D01*
X77331133Y-96718274D02*
X77387980Y-96604579D01*
X77387980Y-96604579D02*
X77501676Y-96547731D01*
X77501676Y-96547731D02*
X77729066Y-96547731D01*
X77729066Y-96547731D02*
X77842761Y-96604579D01*
X77331133Y-97286751D02*
X77444828Y-97343598D01*
X77444828Y-97343598D02*
X77729066Y-97343598D01*
X77729066Y-97343598D02*
X77842761Y-97286751D01*
X77842761Y-97286751D02*
X77899609Y-97173055D01*
X77899609Y-97173055D02*
X77899609Y-97059360D01*
X77899609Y-97059360D02*
X77842761Y-96945665D01*
X77842761Y-96945665D02*
X77729066Y-96888817D01*
X77729066Y-96888817D02*
X77444828Y-96888817D01*
X77444828Y-96888817D02*
X77331133Y-96831970D01*
X76762656Y-97343598D02*
X76762656Y-96547731D01*
X76762656Y-96775122D02*
X76705809Y-96661427D01*
X76705809Y-96661427D02*
X76648961Y-96604579D01*
X76648961Y-96604579D02*
X76535266Y-96547731D01*
X76535266Y-96547731D02*
X76421571Y-96547731D01*
X76023637Y-97343598D02*
X76023637Y-96547731D01*
X76023637Y-96149798D02*
X76080485Y-96206646D01*
X76080485Y-96206646D02*
X76023637Y-96263493D01*
X76023637Y-96263493D02*
X75966790Y-96206646D01*
X75966790Y-96206646D02*
X76023637Y-96149798D01*
X76023637Y-96149798D02*
X76023637Y-96263493D01*
X75455161Y-96547731D02*
X75455161Y-97343598D01*
X75455161Y-96661427D02*
X75398314Y-96604579D01*
X75398314Y-96604579D02*
X75284619Y-96547731D01*
X75284619Y-96547731D02*
X75114076Y-96547731D01*
X75114076Y-96547731D02*
X75000380Y-96604579D01*
X75000380Y-96604579D02*
X74943533Y-96718274D01*
X74943533Y-96718274D02*
X74943533Y-97343598D01*
X73863428Y-97343598D02*
X73863428Y-96718274D01*
X73863428Y-96718274D02*
X73920275Y-96604579D01*
X73920275Y-96604579D02*
X74033971Y-96547731D01*
X74033971Y-96547731D02*
X74261361Y-96547731D01*
X74261361Y-96547731D02*
X74375056Y-96604579D01*
X73863428Y-97286751D02*
X73977123Y-97343598D01*
X73977123Y-97343598D02*
X74261361Y-97343598D01*
X74261361Y-97343598D02*
X74375056Y-97286751D01*
X74375056Y-97286751D02*
X74431904Y-97173055D01*
X74431904Y-97173055D02*
X74431904Y-97059360D01*
X74431904Y-97059360D02*
X74375056Y-96945665D01*
X74375056Y-96945665D02*
X74261361Y-96888817D01*
X74261361Y-96888817D02*
X73977123Y-96888817D01*
X73977123Y-96888817D02*
X73863428Y-96831970D01*
X72385389Y-97343598D02*
X72385389Y-96149798D01*
X71703218Y-97343598D02*
X72214847Y-96661427D01*
X71703218Y-96149798D02*
X72385389Y-96831970D01*
X70679961Y-96547731D02*
X70679961Y-97343598D01*
X71191589Y-96547731D02*
X71191589Y-97173055D01*
X71191589Y-97173055D02*
X71134742Y-97286751D01*
X71134742Y-97286751D02*
X71021047Y-97343598D01*
X71021047Y-97343598D02*
X70850504Y-97343598D01*
X70850504Y-97343598D02*
X70736808Y-97286751D01*
X70736808Y-97286751D02*
X70679961Y-97229903D01*
X69656703Y-97286751D02*
X69770399Y-97343598D01*
X69770399Y-97343598D02*
X69997789Y-97343598D01*
X69997789Y-97343598D02*
X70111484Y-97286751D01*
X70111484Y-97286751D02*
X70168332Y-97173055D01*
X70168332Y-97173055D02*
X70168332Y-96718274D01*
X70168332Y-96718274D02*
X70111484Y-96604579D01*
X70111484Y-96604579D02*
X69997789Y-96547731D01*
X69997789Y-96547731D02*
X69770399Y-96547731D01*
X69770399Y-96547731D02*
X69656703Y-96604579D01*
X69656703Y-96604579D02*
X69599856Y-96718274D01*
X69599856Y-96718274D02*
X69599856Y-96831970D01*
X69599856Y-96831970D02*
X70168332Y-96945665D01*
X69088227Y-97343598D02*
X69088227Y-96149798D01*
X68576599Y-97343598D02*
X68576599Y-96718274D01*
X68576599Y-96718274D02*
X68633446Y-96604579D01*
X68633446Y-96604579D02*
X68747142Y-96547731D01*
X68747142Y-96547731D02*
X68917685Y-96547731D01*
X68917685Y-96547731D02*
X69031380Y-96604579D01*
X69031380Y-96604579D02*
X69088227Y-96661427D01*
X68008122Y-97343598D02*
X68008122Y-96547731D01*
X68008122Y-96775122D02*
X67951275Y-96661427D01*
X67951275Y-96661427D02*
X67894427Y-96604579D01*
X67894427Y-96604579D02*
X67780732Y-96547731D01*
X67780732Y-96547731D02*
X67667037Y-96547731D01*
D10*
X90319048Y-152073866D02*
X91080953Y-152073866D01*
X90700000Y-152454819D02*
X90700000Y-151692914D01*
X135519048Y-152073866D02*
X136280953Y-152073866D01*
X135900000Y-152454819D02*
X135900000Y-151692914D01*
D12*
X111570802Y-153181861D02*
X111154136Y-153181861D01*
X110975564Y-153836623D02*
X111570802Y-153836623D01*
X111570802Y-153836623D02*
X111570802Y-152586623D01*
X111570802Y-152586623D02*
X110975564Y-152586623D01*
X110439850Y-153003290D02*
X110439850Y-153836623D01*
X110439850Y-153122338D02*
X110380327Y-153062814D01*
X110380327Y-153062814D02*
X110261279Y-153003290D01*
X110261279Y-153003290D02*
X110082708Y-153003290D01*
X110082708Y-153003290D02*
X109963660Y-153062814D01*
X109963660Y-153062814D02*
X109904136Y-153181861D01*
X109904136Y-153181861D02*
X109904136Y-153836623D01*
X108773184Y-153836623D02*
X108773184Y-152586623D01*
X108773184Y-153777100D02*
X108892232Y-153836623D01*
X108892232Y-153836623D02*
X109130327Y-153836623D01*
X109130327Y-153836623D02*
X109249375Y-153777100D01*
X109249375Y-153777100D02*
X109308898Y-153717576D01*
X109308898Y-153717576D02*
X109368422Y-153598528D01*
X109368422Y-153598528D02*
X109368422Y-153241385D01*
X109368422Y-153241385D02*
X109308898Y-153122338D01*
X109308898Y-153122338D02*
X109249375Y-153062814D01*
X109249375Y-153062814D02*
X109130327Y-153003290D01*
X109130327Y-153003290D02*
X108892232Y-153003290D01*
X108892232Y-153003290D02*
X108773184Y-153062814D01*
X108177946Y-153360433D02*
X107225566Y-153360433D01*
X106689851Y-153777100D02*
X106511280Y-153836623D01*
X106511280Y-153836623D02*
X106213661Y-153836623D01*
X106213661Y-153836623D02*
X106094613Y-153777100D01*
X106094613Y-153777100D02*
X106035089Y-153717576D01*
X106035089Y-153717576D02*
X105975566Y-153598528D01*
X105975566Y-153598528D02*
X105975566Y-153479480D01*
X105975566Y-153479480D02*
X106035089Y-153360433D01*
X106035089Y-153360433D02*
X106094613Y-153300909D01*
X106094613Y-153300909D02*
X106213661Y-153241385D01*
X106213661Y-153241385D02*
X106451756Y-153181861D01*
X106451756Y-153181861D02*
X106570804Y-153122338D01*
X106570804Y-153122338D02*
X106630327Y-153062814D01*
X106630327Y-153062814D02*
X106689851Y-152943766D01*
X106689851Y-152943766D02*
X106689851Y-152824719D01*
X106689851Y-152824719D02*
X106630327Y-152705671D01*
X106630327Y-152705671D02*
X106570804Y-152646147D01*
X106570804Y-152646147D02*
X106451756Y-152586623D01*
X106451756Y-152586623D02*
X106154137Y-152586623D01*
X106154137Y-152586623D02*
X105975566Y-152646147D01*
X105618423Y-153003290D02*
X105142232Y-153003290D01*
X105439851Y-152586623D02*
X105439851Y-153658052D01*
X105439851Y-153658052D02*
X105380328Y-153777100D01*
X105380328Y-153777100D02*
X105261280Y-153836623D01*
X105261280Y-153836623D02*
X105142232Y-153836623D01*
X104546994Y-153836623D02*
X104666042Y-153777100D01*
X104666042Y-153777100D02*
X104725565Y-153717576D01*
X104725565Y-153717576D02*
X104785089Y-153598528D01*
X104785089Y-153598528D02*
X104785089Y-153241385D01*
X104785089Y-153241385D02*
X104725565Y-153122338D01*
X104725565Y-153122338D02*
X104666042Y-153062814D01*
X104666042Y-153062814D02*
X104546994Y-153003290D01*
X104546994Y-153003290D02*
X104368423Y-153003290D01*
X104368423Y-153003290D02*
X104249375Y-153062814D01*
X104249375Y-153062814D02*
X104189851Y-153122338D01*
X104189851Y-153122338D02*
X104130327Y-153241385D01*
X104130327Y-153241385D02*
X104130327Y-153598528D01*
X104130327Y-153598528D02*
X104189851Y-153717576D01*
X104189851Y-153717576D02*
X104249375Y-153777100D01*
X104249375Y-153777100D02*
X104368423Y-153836623D01*
X104368423Y-153836623D02*
X104546994Y-153836623D01*
X103594613Y-153003290D02*
X103594613Y-154253290D01*
X103594613Y-153062814D02*
X103475566Y-153003290D01*
X103475566Y-153003290D02*
X103237471Y-153003290D01*
X103237471Y-153003290D02*
X103118423Y-153062814D01*
X103118423Y-153062814D02*
X103058899Y-153122338D01*
X103058899Y-153122338D02*
X102999375Y-153241385D01*
X102999375Y-153241385D02*
X102999375Y-153598528D01*
X102999375Y-153598528D02*
X103058899Y-153717576D01*
X103058899Y-153717576D02*
X103118423Y-153777100D01*
X103118423Y-153777100D02*
X103237471Y-153836623D01*
X103237471Y-153836623D02*
X103475566Y-153836623D01*
X103475566Y-153836623D02*
X103594613Y-153777100D01*
X94132707Y-98686623D02*
X94013660Y-98686623D01*
X94013660Y-98686623D02*
X93894612Y-98746147D01*
X93894612Y-98746147D02*
X93835088Y-98805671D01*
X93835088Y-98805671D02*
X93775564Y-98924719D01*
X93775564Y-98924719D02*
X93716041Y-99162814D01*
X93716041Y-99162814D02*
X93716041Y-99460433D01*
X93716041Y-99460433D02*
X93775564Y-99698528D01*
X93775564Y-99698528D02*
X93835088Y-99817576D01*
X93835088Y-99817576D02*
X93894612Y-99877100D01*
X93894612Y-99877100D02*
X94013660Y-99936623D01*
X94013660Y-99936623D02*
X94132707Y-99936623D01*
X94132707Y-99936623D02*
X94251755Y-99877100D01*
X94251755Y-99877100D02*
X94311279Y-99817576D01*
X94311279Y-99817576D02*
X94370802Y-99698528D01*
X94370802Y-99698528D02*
X94430326Y-99460433D01*
X94430326Y-99460433D02*
X94430326Y-99162814D01*
X94430326Y-99162814D02*
X94370802Y-98924719D01*
X94370802Y-98924719D02*
X94311279Y-98805671D01*
X94311279Y-98805671D02*
X94251755Y-98746147D01*
X94251755Y-98746147D02*
X94132707Y-98686623D01*
X93299374Y-98686623D02*
X92466041Y-98686623D01*
X92466041Y-98686623D02*
X93001755Y-99936623D01*
X91096993Y-98627100D02*
X92168422Y-100234242D01*
X90025565Y-99936623D02*
X90739850Y-99936623D01*
X90382707Y-99936623D02*
X90382707Y-98686623D01*
X90382707Y-98686623D02*
X90501755Y-98865195D01*
X90501755Y-98865195D02*
X90620803Y-98984242D01*
X90620803Y-98984242D02*
X90739850Y-99043766D01*
X89608898Y-98686623D02*
X88775565Y-98686623D01*
X88775565Y-98686623D02*
X89311279Y-99936623D01*
X87406517Y-98627100D02*
X88477946Y-100234242D01*
X87049374Y-98805671D02*
X86989850Y-98746147D01*
X86989850Y-98746147D02*
X86870803Y-98686623D01*
X86870803Y-98686623D02*
X86573184Y-98686623D01*
X86573184Y-98686623D02*
X86454136Y-98746147D01*
X86454136Y-98746147D02*
X86394612Y-98805671D01*
X86394612Y-98805671D02*
X86335089Y-98924719D01*
X86335089Y-98924719D02*
X86335089Y-99043766D01*
X86335089Y-99043766D02*
X86394612Y-99222338D01*
X86394612Y-99222338D02*
X87108898Y-99936623D01*
X87108898Y-99936623D02*
X86335089Y-99936623D01*
X85561279Y-98686623D02*
X85442232Y-98686623D01*
X85442232Y-98686623D02*
X85323184Y-98746147D01*
X85323184Y-98746147D02*
X85263660Y-98805671D01*
X85263660Y-98805671D02*
X85204136Y-98924719D01*
X85204136Y-98924719D02*
X85144613Y-99162814D01*
X85144613Y-99162814D02*
X85144613Y-99460433D01*
X85144613Y-99460433D02*
X85204136Y-99698528D01*
X85204136Y-99698528D02*
X85263660Y-99817576D01*
X85263660Y-99817576D02*
X85323184Y-99877100D01*
X85323184Y-99877100D02*
X85442232Y-99936623D01*
X85442232Y-99936623D02*
X85561279Y-99936623D01*
X85561279Y-99936623D02*
X85680327Y-99877100D01*
X85680327Y-99877100D02*
X85739851Y-99817576D01*
X85739851Y-99817576D02*
X85799374Y-99698528D01*
X85799374Y-99698528D02*
X85858898Y-99460433D01*
X85858898Y-99460433D02*
X85858898Y-99162814D01*
X85858898Y-99162814D02*
X85799374Y-98924719D01*
X85799374Y-98924719D02*
X85739851Y-98805671D01*
X85739851Y-98805671D02*
X85680327Y-98746147D01*
X85680327Y-98746147D02*
X85561279Y-98686623D01*
X84668422Y-98805671D02*
X84608898Y-98746147D01*
X84608898Y-98746147D02*
X84489851Y-98686623D01*
X84489851Y-98686623D02*
X84192232Y-98686623D01*
X84192232Y-98686623D02*
X84073184Y-98746147D01*
X84073184Y-98746147D02*
X84013660Y-98805671D01*
X84013660Y-98805671D02*
X83954137Y-98924719D01*
X83954137Y-98924719D02*
X83954137Y-99043766D01*
X83954137Y-99043766D02*
X84013660Y-99222338D01*
X84013660Y-99222338D02*
X84727946Y-99936623D01*
X84727946Y-99936623D02*
X83954137Y-99936623D01*
X82882708Y-99103290D02*
X82882708Y-99936623D01*
X83180327Y-98627100D02*
X83477946Y-99519957D01*
X83477946Y-99519957D02*
X82704137Y-99519957D01*
X95270802Y-153836623D02*
X95270802Y-152586623D01*
X95270802Y-152586623D02*
X94794612Y-152586623D01*
X94794612Y-152586623D02*
X94675564Y-152646147D01*
X94675564Y-152646147D02*
X94616041Y-152705671D01*
X94616041Y-152705671D02*
X94556517Y-152824719D01*
X94556517Y-152824719D02*
X94556517Y-153003290D01*
X94556517Y-153003290D02*
X94616041Y-153122338D01*
X94616041Y-153122338D02*
X94675564Y-153181861D01*
X94675564Y-153181861D02*
X94794612Y-153241385D01*
X94794612Y-153241385D02*
X95270802Y-153241385D01*
X94020802Y-153836623D02*
X94020802Y-153003290D01*
X94020802Y-152586623D02*
X94080326Y-152646147D01*
X94080326Y-152646147D02*
X94020802Y-152705671D01*
X94020802Y-152705671D02*
X93961279Y-152646147D01*
X93961279Y-152646147D02*
X94020802Y-152586623D01*
X94020802Y-152586623D02*
X94020802Y-152705671D01*
X92949374Y-153777100D02*
X93068422Y-153836623D01*
X93068422Y-153836623D02*
X93306517Y-153836623D01*
X93306517Y-153836623D02*
X93425564Y-153777100D01*
X93425564Y-153777100D02*
X93485088Y-153658052D01*
X93485088Y-153658052D02*
X93485088Y-153181861D01*
X93485088Y-153181861D02*
X93425564Y-153062814D01*
X93425564Y-153062814D02*
X93306517Y-153003290D01*
X93306517Y-153003290D02*
X93068422Y-153003290D01*
X93068422Y-153003290D02*
X92949374Y-153062814D01*
X92949374Y-153062814D02*
X92889850Y-153181861D01*
X92889850Y-153181861D02*
X92889850Y-153300909D01*
X92889850Y-153300909D02*
X93485088Y-153419957D01*
X92473183Y-153003290D02*
X91818421Y-153003290D01*
X91818421Y-153003290D02*
X92473183Y-153836623D01*
X92473183Y-153836623D02*
X91818421Y-153836623D01*
X91163659Y-153836623D02*
X91282707Y-153777100D01*
X91282707Y-153777100D02*
X91342230Y-153717576D01*
X91342230Y-153717576D02*
X91401754Y-153598528D01*
X91401754Y-153598528D02*
X91401754Y-153241385D01*
X91401754Y-153241385D02*
X91342230Y-153122338D01*
X91342230Y-153122338D02*
X91282707Y-153062814D01*
X91282707Y-153062814D02*
X91163659Y-153003290D01*
X91163659Y-153003290D02*
X90985088Y-153003290D01*
X90985088Y-153003290D02*
X90866040Y-153062814D01*
X90866040Y-153062814D02*
X90806516Y-153122338D01*
X90806516Y-153122338D02*
X90746992Y-153241385D01*
X90746992Y-153241385D02*
X90746992Y-153598528D01*
X90746992Y-153598528D02*
X90806516Y-153717576D01*
X90806516Y-153717576D02*
X90866040Y-153777100D01*
X90866040Y-153777100D02*
X90985088Y-153836623D01*
X90985088Y-153836623D02*
X91163659Y-153836623D01*
X142889850Y-135286623D02*
X142592231Y-136536623D01*
X142592231Y-136536623D02*
X142354136Y-135643766D01*
X142354136Y-135643766D02*
X142116041Y-136536623D01*
X142116041Y-136536623D02*
X141818422Y-135286623D01*
X140866041Y-136477100D02*
X140985089Y-136536623D01*
X140985089Y-136536623D02*
X141223184Y-136536623D01*
X141223184Y-136536623D02*
X141342231Y-136477100D01*
X141342231Y-136477100D02*
X141401755Y-136358052D01*
X141401755Y-136358052D02*
X141401755Y-135881861D01*
X141401755Y-135881861D02*
X141342231Y-135762814D01*
X141342231Y-135762814D02*
X141223184Y-135703290D01*
X141223184Y-135703290D02*
X140985089Y-135703290D01*
X140985089Y-135703290D02*
X140866041Y-135762814D01*
X140866041Y-135762814D02*
X140806517Y-135881861D01*
X140806517Y-135881861D02*
X140806517Y-136000909D01*
X140806517Y-136000909D02*
X141401755Y-136119957D01*
X140270802Y-136536623D02*
X140270802Y-135286623D01*
X140270802Y-135762814D02*
X140151755Y-135703290D01*
X140151755Y-135703290D02*
X139913660Y-135703290D01*
X139913660Y-135703290D02*
X139794612Y-135762814D01*
X139794612Y-135762814D02*
X139735088Y-135822338D01*
X139735088Y-135822338D02*
X139675564Y-135941385D01*
X139675564Y-135941385D02*
X139675564Y-136298528D01*
X139675564Y-136298528D02*
X139735088Y-136417576D01*
X139735088Y-136417576D02*
X139794612Y-136477100D01*
X139794612Y-136477100D02*
X139913660Y-136536623D01*
X139913660Y-136536623D02*
X140151755Y-136536623D01*
X140151755Y-136536623D02*
X140270802Y-136477100D01*
X139199374Y-136477100D02*
X139080327Y-136536623D01*
X139080327Y-136536623D02*
X138842231Y-136536623D01*
X138842231Y-136536623D02*
X138723184Y-136477100D01*
X138723184Y-136477100D02*
X138663660Y-136358052D01*
X138663660Y-136358052D02*
X138663660Y-136298528D01*
X138663660Y-136298528D02*
X138723184Y-136179480D01*
X138723184Y-136179480D02*
X138842231Y-136119957D01*
X138842231Y-136119957D02*
X139020803Y-136119957D01*
X139020803Y-136119957D02*
X139139850Y-136060433D01*
X139139850Y-136060433D02*
X139199374Y-135941385D01*
X139199374Y-135941385D02*
X139199374Y-135881861D01*
X139199374Y-135881861D02*
X139139850Y-135762814D01*
X139139850Y-135762814D02*
X139020803Y-135703290D01*
X139020803Y-135703290D02*
X138842231Y-135703290D01*
X138842231Y-135703290D02*
X138723184Y-135762814D01*
X138127945Y-136536623D02*
X138127945Y-135703290D01*
X138127945Y-135286623D02*
X138187469Y-135346147D01*
X138187469Y-135346147D02*
X138127945Y-135405671D01*
X138127945Y-135405671D02*
X138068422Y-135346147D01*
X138068422Y-135346147D02*
X138127945Y-135286623D01*
X138127945Y-135286623D02*
X138127945Y-135405671D01*
X137711279Y-135703290D02*
X137235088Y-135703290D01*
X137532707Y-135286623D02*
X137532707Y-136358052D01*
X137532707Y-136358052D02*
X137473184Y-136477100D01*
X137473184Y-136477100D02*
X137354136Y-136536623D01*
X137354136Y-136536623D02*
X137235088Y-136536623D01*
X136342231Y-136477100D02*
X136461279Y-136536623D01*
X136461279Y-136536623D02*
X136699374Y-136536623D01*
X136699374Y-136536623D02*
X136818421Y-136477100D01*
X136818421Y-136477100D02*
X136877945Y-136358052D01*
X136877945Y-136358052D02*
X136877945Y-135881861D01*
X136877945Y-135881861D02*
X136818421Y-135762814D01*
X136818421Y-135762814D02*
X136699374Y-135703290D01*
X136699374Y-135703290D02*
X136461279Y-135703290D01*
X136461279Y-135703290D02*
X136342231Y-135762814D01*
X136342231Y-135762814D02*
X136282707Y-135881861D01*
X136282707Y-135881861D02*
X136282707Y-136000909D01*
X136282707Y-136000909D02*
X136877945Y-136119957D01*
X135746992Y-136417576D02*
X135687469Y-136477100D01*
X135687469Y-136477100D02*
X135746992Y-136536623D01*
X135746992Y-136536623D02*
X135806516Y-136477100D01*
X135806516Y-136477100D02*
X135746992Y-136417576D01*
X135746992Y-136417576D02*
X135746992Y-136536623D01*
X135746992Y-135762814D02*
X135687469Y-135822338D01*
X135687469Y-135822338D02*
X135746992Y-135881861D01*
X135746992Y-135881861D02*
X135806516Y-135822338D01*
X135806516Y-135822338D02*
X135746992Y-135762814D01*
X135746992Y-135762814D02*
X135746992Y-135881861D01*
X134199373Y-136536623D02*
X134199373Y-135286623D01*
X133663659Y-136536623D02*
X133663659Y-135881861D01*
X133663659Y-135881861D02*
X133723183Y-135762814D01*
X133723183Y-135762814D02*
X133842231Y-135703290D01*
X133842231Y-135703290D02*
X134020802Y-135703290D01*
X134020802Y-135703290D02*
X134139850Y-135762814D01*
X134139850Y-135762814D02*
X134199373Y-135822338D01*
X133246993Y-135703290D02*
X132770802Y-135703290D01*
X133068421Y-135286623D02*
X133068421Y-136358052D01*
X133068421Y-136358052D02*
X133008898Y-136477100D01*
X133008898Y-136477100D02*
X132889850Y-136536623D01*
X132889850Y-136536623D02*
X132770802Y-136536623D01*
X132532707Y-135703290D02*
X132056516Y-135703290D01*
X132354135Y-135286623D02*
X132354135Y-136358052D01*
X132354135Y-136358052D02*
X132294612Y-136477100D01*
X132294612Y-136477100D02*
X132175564Y-136536623D01*
X132175564Y-136536623D02*
X132056516Y-136536623D01*
X131639849Y-135703290D02*
X131639849Y-136953290D01*
X131639849Y-135762814D02*
X131520802Y-135703290D01*
X131520802Y-135703290D02*
X131282707Y-135703290D01*
X131282707Y-135703290D02*
X131163659Y-135762814D01*
X131163659Y-135762814D02*
X131104135Y-135822338D01*
X131104135Y-135822338D02*
X131044611Y-135941385D01*
X131044611Y-135941385D02*
X131044611Y-136298528D01*
X131044611Y-136298528D02*
X131104135Y-136417576D01*
X131104135Y-136417576D02*
X131163659Y-136477100D01*
X131163659Y-136477100D02*
X131282707Y-136536623D01*
X131282707Y-136536623D02*
X131520802Y-136536623D01*
X131520802Y-136536623D02*
X131639849Y-136477100D01*
X130568421Y-136477100D02*
X130449374Y-136536623D01*
X130449374Y-136536623D02*
X130211278Y-136536623D01*
X130211278Y-136536623D02*
X130092231Y-136477100D01*
X130092231Y-136477100D02*
X130032707Y-136358052D01*
X130032707Y-136358052D02*
X130032707Y-136298528D01*
X130032707Y-136298528D02*
X130092231Y-136179480D01*
X130092231Y-136179480D02*
X130211278Y-136119957D01*
X130211278Y-136119957D02*
X130389850Y-136119957D01*
X130389850Y-136119957D02*
X130508897Y-136060433D01*
X130508897Y-136060433D02*
X130568421Y-135941385D01*
X130568421Y-135941385D02*
X130568421Y-135881861D01*
X130568421Y-135881861D02*
X130508897Y-135762814D01*
X130508897Y-135762814D02*
X130389850Y-135703290D01*
X130389850Y-135703290D02*
X130211278Y-135703290D01*
X130211278Y-135703290D02*
X130092231Y-135762814D01*
X129496992Y-136417576D02*
X129437469Y-136477100D01*
X129437469Y-136477100D02*
X129496992Y-136536623D01*
X129496992Y-136536623D02*
X129556516Y-136477100D01*
X129556516Y-136477100D02*
X129496992Y-136417576D01*
X129496992Y-136417576D02*
X129496992Y-136536623D01*
X129496992Y-135762814D02*
X129437469Y-135822338D01*
X129437469Y-135822338D02*
X129496992Y-135881861D01*
X129496992Y-135881861D02*
X129556516Y-135822338D01*
X129556516Y-135822338D02*
X129496992Y-135762814D01*
X129496992Y-135762814D02*
X129496992Y-135881861D01*
X128008897Y-135227100D02*
X129080326Y-136834242D01*
X126699373Y-135227100D02*
X127770802Y-136834242D01*
X126342230Y-136477100D02*
X126223183Y-136536623D01*
X126223183Y-136536623D02*
X125985087Y-136536623D01*
X125985087Y-136536623D02*
X125866040Y-136477100D01*
X125866040Y-136477100D02*
X125806516Y-136358052D01*
X125806516Y-136358052D02*
X125806516Y-136298528D01*
X125806516Y-136298528D02*
X125866040Y-136179480D01*
X125866040Y-136179480D02*
X125985087Y-136119957D01*
X125985087Y-136119957D02*
X126163659Y-136119957D01*
X126163659Y-136119957D02*
X126282706Y-136060433D01*
X126282706Y-136060433D02*
X126342230Y-135941385D01*
X126342230Y-135941385D02*
X126342230Y-135881861D01*
X126342230Y-135881861D02*
X126282706Y-135762814D01*
X126282706Y-135762814D02*
X126163659Y-135703290D01*
X126163659Y-135703290D02*
X125985087Y-135703290D01*
X125985087Y-135703290D02*
X125866040Y-135762814D01*
X125270801Y-136536623D02*
X125270801Y-135703290D01*
X125270801Y-135286623D02*
X125330325Y-135346147D01*
X125330325Y-135346147D02*
X125270801Y-135405671D01*
X125270801Y-135405671D02*
X125211278Y-135346147D01*
X125211278Y-135346147D02*
X125270801Y-135286623D01*
X125270801Y-135286623D02*
X125270801Y-135405671D01*
X124854135Y-135703290D02*
X124377944Y-135703290D01*
X124675563Y-135286623D02*
X124675563Y-136358052D01*
X124675563Y-136358052D02*
X124616040Y-136477100D01*
X124616040Y-136477100D02*
X124496992Y-136536623D01*
X124496992Y-136536623D02*
X124377944Y-136536623D01*
X123485087Y-136477100D02*
X123604135Y-136536623D01*
X123604135Y-136536623D02*
X123842230Y-136536623D01*
X123842230Y-136536623D02*
X123961277Y-136477100D01*
X123961277Y-136477100D02*
X124020801Y-136358052D01*
X124020801Y-136358052D02*
X124020801Y-135881861D01*
X124020801Y-135881861D02*
X123961277Y-135762814D01*
X123961277Y-135762814D02*
X123842230Y-135703290D01*
X123842230Y-135703290D02*
X123604135Y-135703290D01*
X123604135Y-135703290D02*
X123485087Y-135762814D01*
X123485087Y-135762814D02*
X123425563Y-135881861D01*
X123425563Y-135881861D02*
X123425563Y-136000909D01*
X123425563Y-136000909D02*
X124020801Y-136119957D01*
X122949372Y-136477100D02*
X122830325Y-136536623D01*
X122830325Y-136536623D02*
X122592229Y-136536623D01*
X122592229Y-136536623D02*
X122473182Y-136477100D01*
X122473182Y-136477100D02*
X122413658Y-136358052D01*
X122413658Y-136358052D02*
X122413658Y-136298528D01*
X122413658Y-136298528D02*
X122473182Y-136179480D01*
X122473182Y-136179480D02*
X122592229Y-136119957D01*
X122592229Y-136119957D02*
X122770801Y-136119957D01*
X122770801Y-136119957D02*
X122889848Y-136060433D01*
X122889848Y-136060433D02*
X122949372Y-135941385D01*
X122949372Y-135941385D02*
X122949372Y-135881861D01*
X122949372Y-135881861D02*
X122889848Y-135762814D01*
X122889848Y-135762814D02*
X122770801Y-135703290D01*
X122770801Y-135703290D02*
X122592229Y-135703290D01*
X122592229Y-135703290D02*
X122473182Y-135762814D01*
X121877943Y-136417576D02*
X121818420Y-136477100D01*
X121818420Y-136477100D02*
X121877943Y-136536623D01*
X121877943Y-136536623D02*
X121937467Y-136477100D01*
X121937467Y-136477100D02*
X121877943Y-136417576D01*
X121877943Y-136417576D02*
X121877943Y-136536623D01*
X121282705Y-136536623D02*
X121282705Y-135286623D01*
X121282705Y-135762814D02*
X121163658Y-135703290D01*
X121163658Y-135703290D02*
X120925563Y-135703290D01*
X120925563Y-135703290D02*
X120806515Y-135762814D01*
X120806515Y-135762814D02*
X120746991Y-135822338D01*
X120746991Y-135822338D02*
X120687467Y-135941385D01*
X120687467Y-135941385D02*
X120687467Y-136298528D01*
X120687467Y-136298528D02*
X120746991Y-136417576D01*
X120746991Y-136417576D02*
X120806515Y-136477100D01*
X120806515Y-136477100D02*
X120925563Y-136536623D01*
X120925563Y-136536623D02*
X121163658Y-136536623D01*
X121163658Y-136536623D02*
X121282705Y-136477100D01*
X120151753Y-136536623D02*
X120151753Y-135703290D01*
X120151753Y-135941385D02*
X120092230Y-135822338D01*
X120092230Y-135822338D02*
X120032706Y-135762814D01*
X120032706Y-135762814D02*
X119913658Y-135703290D01*
X119913658Y-135703290D02*
X119794611Y-135703290D01*
X119199372Y-136536623D02*
X119318420Y-136477100D01*
X119318420Y-136477100D02*
X119377943Y-136417576D01*
X119377943Y-136417576D02*
X119437467Y-136298528D01*
X119437467Y-136298528D02*
X119437467Y-135941385D01*
X119437467Y-135941385D02*
X119377943Y-135822338D01*
X119377943Y-135822338D02*
X119318420Y-135762814D01*
X119318420Y-135762814D02*
X119199372Y-135703290D01*
X119199372Y-135703290D02*
X119020801Y-135703290D01*
X119020801Y-135703290D02*
X118901753Y-135762814D01*
X118901753Y-135762814D02*
X118842229Y-135822338D01*
X118842229Y-135822338D02*
X118782705Y-135941385D01*
X118782705Y-135941385D02*
X118782705Y-136298528D01*
X118782705Y-136298528D02*
X118842229Y-136417576D01*
X118842229Y-136417576D02*
X118901753Y-136477100D01*
X118901753Y-136477100D02*
X119020801Y-136536623D01*
X119020801Y-136536623D02*
X119199372Y-136536623D01*
X118366039Y-135703290D02*
X118127944Y-136536623D01*
X118127944Y-136536623D02*
X117889849Y-135941385D01*
X117889849Y-135941385D02*
X117651753Y-136536623D01*
X117651753Y-136536623D02*
X117413658Y-135703290D01*
X116937467Y-135703290D02*
X116937467Y-136536623D01*
X116937467Y-135822338D02*
X116877944Y-135762814D01*
X116877944Y-135762814D02*
X116758896Y-135703290D01*
X116758896Y-135703290D02*
X116580325Y-135703290D01*
X116580325Y-135703290D02*
X116461277Y-135762814D01*
X116461277Y-135762814D02*
X116401753Y-135881861D01*
X116401753Y-135881861D02*
X116401753Y-136536623D01*
X115806515Y-136417576D02*
X115746992Y-136477100D01*
X115746992Y-136477100D02*
X115806515Y-136536623D01*
X115806515Y-136536623D02*
X115866039Y-136477100D01*
X115866039Y-136477100D02*
X115806515Y-136417576D01*
X115806515Y-136417576D02*
X115806515Y-136536623D01*
X114735087Y-136477100D02*
X114854135Y-136536623D01*
X114854135Y-136536623D02*
X115092230Y-136536623D01*
X115092230Y-136536623D02*
X115211277Y-136477100D01*
X115211277Y-136477100D02*
X115270801Y-136358052D01*
X115270801Y-136358052D02*
X115270801Y-135881861D01*
X115270801Y-135881861D02*
X115211277Y-135762814D01*
X115211277Y-135762814D02*
X115092230Y-135703290D01*
X115092230Y-135703290D02*
X114854135Y-135703290D01*
X114854135Y-135703290D02*
X114735087Y-135762814D01*
X114735087Y-135762814D02*
X114675563Y-135881861D01*
X114675563Y-135881861D02*
X114675563Y-136000909D01*
X114675563Y-136000909D02*
X115270801Y-136119957D01*
X113604134Y-136536623D02*
X113604134Y-135286623D01*
X113604134Y-136477100D02*
X113723182Y-136536623D01*
X113723182Y-136536623D02*
X113961277Y-136536623D01*
X113961277Y-136536623D02*
X114080325Y-136477100D01*
X114080325Y-136477100D02*
X114139848Y-136417576D01*
X114139848Y-136417576D02*
X114199372Y-136298528D01*
X114199372Y-136298528D02*
X114199372Y-135941385D01*
X114199372Y-135941385D02*
X114139848Y-135822338D01*
X114139848Y-135822338D02*
X114080325Y-135762814D01*
X114080325Y-135762814D02*
X113961277Y-135703290D01*
X113961277Y-135703290D02*
X113723182Y-135703290D01*
X113723182Y-135703290D02*
X113604134Y-135762814D01*
X112473182Y-135703290D02*
X112473182Y-136536623D01*
X113008896Y-135703290D02*
X113008896Y-136358052D01*
X113008896Y-136358052D02*
X112949373Y-136477100D01*
X112949373Y-136477100D02*
X112830325Y-136536623D01*
X112830325Y-136536623D02*
X112651754Y-136536623D01*
X112651754Y-136536623D02*
X112532706Y-136477100D01*
X112532706Y-136477100D02*
X112473182Y-136417576D01*
X110985087Y-135227100D02*
X112056516Y-136834242D01*
X110568420Y-136536623D02*
X110568420Y-135286623D01*
X110032706Y-136536623D02*
X110032706Y-135881861D01*
X110032706Y-135881861D02*
X110092230Y-135762814D01*
X110092230Y-135762814D02*
X110211278Y-135703290D01*
X110211278Y-135703290D02*
X110389849Y-135703290D01*
X110389849Y-135703290D02*
X110508897Y-135762814D01*
X110508897Y-135762814D02*
X110568420Y-135822338D01*
X108901754Y-136536623D02*
X108901754Y-135881861D01*
X108901754Y-135881861D02*
X108961278Y-135762814D01*
X108961278Y-135762814D02*
X109080326Y-135703290D01*
X109080326Y-135703290D02*
X109318421Y-135703290D01*
X109318421Y-135703290D02*
X109437468Y-135762814D01*
X108901754Y-136477100D02*
X109020802Y-136536623D01*
X109020802Y-136536623D02*
X109318421Y-136536623D01*
X109318421Y-136536623D02*
X109437468Y-136477100D01*
X109437468Y-136477100D02*
X109496992Y-136358052D01*
X109496992Y-136358052D02*
X109496992Y-136239004D01*
X109496992Y-136239004D02*
X109437468Y-136119957D01*
X109437468Y-136119957D02*
X109318421Y-136060433D01*
X109318421Y-136060433D02*
X109020802Y-136060433D01*
X109020802Y-136060433D02*
X108901754Y-136000909D01*
X108306516Y-136536623D02*
X108306516Y-135703290D01*
X108306516Y-135941385D02*
X108246993Y-135822338D01*
X108246993Y-135822338D02*
X108187469Y-135762814D01*
X108187469Y-135762814D02*
X108068421Y-135703290D01*
X108068421Y-135703290D02*
X107949374Y-135703290D01*
X107532706Y-136536623D02*
X107532706Y-135703290D01*
X107532706Y-135941385D02*
X107473183Y-135822338D01*
X107473183Y-135822338D02*
X107413659Y-135762814D01*
X107413659Y-135762814D02*
X107294611Y-135703290D01*
X107294611Y-135703290D02*
X107175564Y-135703290D01*
X106758896Y-136536623D02*
X106758896Y-135703290D01*
X106758896Y-135286623D02*
X106818420Y-135346147D01*
X106818420Y-135346147D02*
X106758896Y-135405671D01*
X106758896Y-135405671D02*
X106699373Y-135346147D01*
X106699373Y-135346147D02*
X106758896Y-135286623D01*
X106758896Y-135286623D02*
X106758896Y-135405671D01*
X106223182Y-136477100D02*
X106104135Y-136536623D01*
X106104135Y-136536623D02*
X105866039Y-136536623D01*
X105866039Y-136536623D02*
X105746992Y-136477100D01*
X105746992Y-136477100D02*
X105687468Y-136358052D01*
X105687468Y-136358052D02*
X105687468Y-136298528D01*
X105687468Y-136298528D02*
X105746992Y-136179480D01*
X105746992Y-136179480D02*
X105866039Y-136119957D01*
X105866039Y-136119957D02*
X106044611Y-136119957D01*
X106044611Y-136119957D02*
X106163658Y-136060433D01*
X106163658Y-136060433D02*
X106223182Y-135941385D01*
X106223182Y-135941385D02*
X106223182Y-135881861D01*
X106223182Y-135881861D02*
X106163658Y-135762814D01*
X106163658Y-135762814D02*
X106044611Y-135703290D01*
X106044611Y-135703290D02*
X105866039Y-135703290D01*
X105866039Y-135703290D02*
X105746992Y-135762814D01*
X104973182Y-136536623D02*
X105092230Y-136477100D01*
X105092230Y-136477100D02*
X105151753Y-136358052D01*
X105151753Y-136358052D02*
X105151753Y-135286623D01*
X103961277Y-136536623D02*
X103961277Y-135881861D01*
X103961277Y-135881861D02*
X104020801Y-135762814D01*
X104020801Y-135762814D02*
X104139849Y-135703290D01*
X104139849Y-135703290D02*
X104377944Y-135703290D01*
X104377944Y-135703290D02*
X104496991Y-135762814D01*
X103961277Y-136477100D02*
X104080325Y-136536623D01*
X104080325Y-136536623D02*
X104377944Y-136536623D01*
X104377944Y-136536623D02*
X104496991Y-136477100D01*
X104496991Y-136477100D02*
X104556515Y-136358052D01*
X104556515Y-136358052D02*
X104556515Y-136239004D01*
X104556515Y-136239004D02*
X104496991Y-136119957D01*
X104496991Y-136119957D02*
X104377944Y-136060433D01*
X104377944Y-136060433D02*
X104080325Y-136060433D01*
X104080325Y-136060433D02*
X103961277Y-136000909D01*
X103366039Y-136536623D02*
X103366039Y-135286623D01*
X103366039Y-135762814D02*
X103246992Y-135703290D01*
X103246992Y-135703290D02*
X103008897Y-135703290D01*
X103008897Y-135703290D02*
X102889849Y-135762814D01*
X102889849Y-135762814D02*
X102830325Y-135822338D01*
X102830325Y-135822338D02*
X102770801Y-135941385D01*
X102770801Y-135941385D02*
X102770801Y-136298528D01*
X102770801Y-136298528D02*
X102830325Y-136417576D01*
X102830325Y-136417576D02*
X102889849Y-136477100D01*
X102889849Y-136477100D02*
X103008897Y-136536623D01*
X103008897Y-136536623D02*
X103246992Y-136536623D01*
X103246992Y-136536623D02*
X103366039Y-136477100D01*
X101342230Y-135227100D02*
X102413659Y-136834242D01*
D10*
X95319048Y-152073866D02*
X96080953Y-152073866D01*
D12*
X79170802Y-153836623D02*
X79170802Y-152586623D01*
X79170802Y-152586623D02*
X78694612Y-152586623D01*
X78694612Y-152586623D02*
X78575564Y-152646147D01*
X78575564Y-152646147D02*
X78516041Y-152705671D01*
X78516041Y-152705671D02*
X78456517Y-152824719D01*
X78456517Y-152824719D02*
X78456517Y-153003290D01*
X78456517Y-153003290D02*
X78516041Y-153122338D01*
X78516041Y-153122338D02*
X78575564Y-153181861D01*
X78575564Y-153181861D02*
X78694612Y-153241385D01*
X78694612Y-153241385D02*
X79170802Y-153241385D01*
X77742231Y-153836623D02*
X77861279Y-153777100D01*
X77861279Y-153777100D02*
X77920802Y-153717576D01*
X77920802Y-153717576D02*
X77980326Y-153598528D01*
X77980326Y-153598528D02*
X77980326Y-153241385D01*
X77980326Y-153241385D02*
X77920802Y-153122338D01*
X77920802Y-153122338D02*
X77861279Y-153062814D01*
X77861279Y-153062814D02*
X77742231Y-153003290D01*
X77742231Y-153003290D02*
X77563660Y-153003290D01*
X77563660Y-153003290D02*
X77444612Y-153062814D01*
X77444612Y-153062814D02*
X77385088Y-153122338D01*
X77385088Y-153122338D02*
X77325564Y-153241385D01*
X77325564Y-153241385D02*
X77325564Y-153598528D01*
X77325564Y-153598528D02*
X77385088Y-153717576D01*
X77385088Y-153717576D02*
X77444612Y-153777100D01*
X77444612Y-153777100D02*
X77563660Y-153836623D01*
X77563660Y-153836623D02*
X77742231Y-153836623D01*
X76908898Y-153003290D02*
X76670803Y-153836623D01*
X76670803Y-153836623D02*
X76432708Y-153241385D01*
X76432708Y-153241385D02*
X76194612Y-153836623D01*
X76194612Y-153836623D02*
X75956517Y-153003290D01*
X75004136Y-153777100D02*
X75123184Y-153836623D01*
X75123184Y-153836623D02*
X75361279Y-153836623D01*
X75361279Y-153836623D02*
X75480326Y-153777100D01*
X75480326Y-153777100D02*
X75539850Y-153658052D01*
X75539850Y-153658052D02*
X75539850Y-153181861D01*
X75539850Y-153181861D02*
X75480326Y-153062814D01*
X75480326Y-153062814D02*
X75361279Y-153003290D01*
X75361279Y-153003290D02*
X75123184Y-153003290D01*
X75123184Y-153003290D02*
X75004136Y-153062814D01*
X75004136Y-153062814D02*
X74944612Y-153181861D01*
X74944612Y-153181861D02*
X74944612Y-153300909D01*
X74944612Y-153300909D02*
X75539850Y-153419957D01*
X74408897Y-153836623D02*
X74408897Y-153003290D01*
X74408897Y-153241385D02*
X74349374Y-153122338D01*
X74349374Y-153122338D02*
X74289850Y-153062814D01*
X74289850Y-153062814D02*
X74170802Y-153003290D01*
X74170802Y-153003290D02*
X74051755Y-153003290D01*
X72742230Y-153777100D02*
X72563659Y-153836623D01*
X72563659Y-153836623D02*
X72266040Y-153836623D01*
X72266040Y-153836623D02*
X72146992Y-153777100D01*
X72146992Y-153777100D02*
X72087468Y-153717576D01*
X72087468Y-153717576D02*
X72027945Y-153598528D01*
X72027945Y-153598528D02*
X72027945Y-153479480D01*
X72027945Y-153479480D02*
X72087468Y-153360433D01*
X72087468Y-153360433D02*
X72146992Y-153300909D01*
X72146992Y-153300909D02*
X72266040Y-153241385D01*
X72266040Y-153241385D02*
X72504135Y-153181861D01*
X72504135Y-153181861D02*
X72623183Y-153122338D01*
X72623183Y-153122338D02*
X72682706Y-153062814D01*
X72682706Y-153062814D02*
X72742230Y-152943766D01*
X72742230Y-152943766D02*
X72742230Y-152824719D01*
X72742230Y-152824719D02*
X72682706Y-152705671D01*
X72682706Y-152705671D02*
X72623183Y-152646147D01*
X72623183Y-152646147D02*
X72504135Y-152586623D01*
X72504135Y-152586623D02*
X72206516Y-152586623D01*
X72206516Y-152586623D02*
X72027945Y-152646147D01*
X70956516Y-153003290D02*
X70956516Y-153836623D01*
X71492230Y-153003290D02*
X71492230Y-153658052D01*
X71492230Y-153658052D02*
X71432707Y-153777100D01*
X71432707Y-153777100D02*
X71313659Y-153836623D01*
X71313659Y-153836623D02*
X71135088Y-153836623D01*
X71135088Y-153836623D02*
X71016040Y-153777100D01*
X71016040Y-153777100D02*
X70956516Y-153717576D01*
X70361278Y-153003290D02*
X70361278Y-154253290D01*
X70361278Y-153062814D02*
X70242231Y-153003290D01*
X70242231Y-153003290D02*
X70004136Y-153003290D01*
X70004136Y-153003290D02*
X69885088Y-153062814D01*
X69885088Y-153062814D02*
X69825564Y-153122338D01*
X69825564Y-153122338D02*
X69766040Y-153241385D01*
X69766040Y-153241385D02*
X69766040Y-153598528D01*
X69766040Y-153598528D02*
X69825564Y-153717576D01*
X69825564Y-153717576D02*
X69885088Y-153777100D01*
X69885088Y-153777100D02*
X70004136Y-153836623D01*
X70004136Y-153836623D02*
X70242231Y-153836623D01*
X70242231Y-153836623D02*
X70361278Y-153777100D01*
X69230326Y-153003290D02*
X69230326Y-154253290D01*
X69230326Y-153062814D02*
X69111279Y-153003290D01*
X69111279Y-153003290D02*
X68873184Y-153003290D01*
X68873184Y-153003290D02*
X68754136Y-153062814D01*
X68754136Y-153062814D02*
X68694612Y-153122338D01*
X68694612Y-153122338D02*
X68635088Y-153241385D01*
X68635088Y-153241385D02*
X68635088Y-153598528D01*
X68635088Y-153598528D02*
X68694612Y-153717576D01*
X68694612Y-153717576D02*
X68754136Y-153777100D01*
X68754136Y-153777100D02*
X68873184Y-153836623D01*
X68873184Y-153836623D02*
X69111279Y-153836623D01*
X69111279Y-153836623D02*
X69230326Y-153777100D01*
X67920803Y-153836623D02*
X68039851Y-153777100D01*
X68039851Y-153777100D02*
X68099374Y-153658052D01*
X68099374Y-153658052D02*
X68099374Y-152586623D01*
X67563660Y-153003290D02*
X67266041Y-153836623D01*
X66968422Y-153003290D02*
X67266041Y-153836623D01*
X67266041Y-153836623D02*
X67385089Y-154134242D01*
X67385089Y-154134242D02*
X67444612Y-154193766D01*
X67444612Y-154193766D02*
X67563660Y-154253290D01*
X125870802Y-153836623D02*
X125870802Y-152586623D01*
X125870802Y-152586623D02*
X125454136Y-153479480D01*
X125454136Y-153479480D02*
X125037469Y-152586623D01*
X125037469Y-152586623D02*
X125037469Y-153836623D01*
X124263660Y-153836623D02*
X124382708Y-153777100D01*
X124382708Y-153777100D02*
X124442231Y-153717576D01*
X124442231Y-153717576D02*
X124501755Y-153598528D01*
X124501755Y-153598528D02*
X124501755Y-153241385D01*
X124501755Y-153241385D02*
X124442231Y-153122338D01*
X124442231Y-153122338D02*
X124382708Y-153062814D01*
X124382708Y-153062814D02*
X124263660Y-153003290D01*
X124263660Y-153003290D02*
X124085089Y-153003290D01*
X124085089Y-153003290D02*
X123966041Y-153062814D01*
X123966041Y-153062814D02*
X123906517Y-153122338D01*
X123906517Y-153122338D02*
X123846993Y-153241385D01*
X123846993Y-153241385D02*
X123846993Y-153598528D01*
X123846993Y-153598528D02*
X123906517Y-153717576D01*
X123906517Y-153717576D02*
X123966041Y-153777100D01*
X123966041Y-153777100D02*
X124085089Y-153836623D01*
X124085089Y-153836623D02*
X124263660Y-153836623D01*
X123489851Y-153003290D02*
X123013660Y-153003290D01*
X123311279Y-152586623D02*
X123311279Y-153658052D01*
X123311279Y-153658052D02*
X123251756Y-153777100D01*
X123251756Y-153777100D02*
X123132708Y-153836623D01*
X123132708Y-153836623D02*
X123013660Y-153836623D01*
X122418422Y-153836623D02*
X122537470Y-153777100D01*
X122537470Y-153777100D02*
X122596993Y-153717576D01*
X122596993Y-153717576D02*
X122656517Y-153598528D01*
X122656517Y-153598528D02*
X122656517Y-153241385D01*
X122656517Y-153241385D02*
X122596993Y-153122338D01*
X122596993Y-153122338D02*
X122537470Y-153062814D01*
X122537470Y-153062814D02*
X122418422Y-153003290D01*
X122418422Y-153003290D02*
X122239851Y-153003290D01*
X122239851Y-153003290D02*
X122120803Y-153062814D01*
X122120803Y-153062814D02*
X122061279Y-153122338D01*
X122061279Y-153122338D02*
X122001755Y-153241385D01*
X122001755Y-153241385D02*
X122001755Y-153598528D01*
X122001755Y-153598528D02*
X122061279Y-153717576D01*
X122061279Y-153717576D02*
X122120803Y-153777100D01*
X122120803Y-153777100D02*
X122239851Y-153836623D01*
X122239851Y-153836623D02*
X122418422Y-153836623D01*
X121466041Y-153836623D02*
X121466041Y-153003290D01*
X121466041Y-153241385D02*
X121406518Y-153122338D01*
X121406518Y-153122338D02*
X121346994Y-153062814D01*
X121346994Y-153062814D02*
X121227946Y-153003290D01*
X121227946Y-153003290D02*
X121108899Y-153003290D01*
X140856517Y-153717576D02*
X140916041Y-153777100D01*
X140916041Y-153777100D02*
X141094612Y-153836623D01*
X141094612Y-153836623D02*
X141213660Y-153836623D01*
X141213660Y-153836623D02*
X141392231Y-153777100D01*
X141392231Y-153777100D02*
X141511279Y-153658052D01*
X141511279Y-153658052D02*
X141570802Y-153539004D01*
X141570802Y-153539004D02*
X141630326Y-153300909D01*
X141630326Y-153300909D02*
X141630326Y-153122338D01*
X141630326Y-153122338D02*
X141570802Y-152884242D01*
X141570802Y-152884242D02*
X141511279Y-152765195D01*
X141511279Y-152765195D02*
X141392231Y-152646147D01*
X141392231Y-152646147D02*
X141213660Y-152586623D01*
X141213660Y-152586623D02*
X141094612Y-152586623D01*
X141094612Y-152586623D02*
X140916041Y-152646147D01*
X140916041Y-152646147D02*
X140856517Y-152705671D01*
X139785088Y-153836623D02*
X139785088Y-153181861D01*
X139785088Y-153181861D02*
X139844612Y-153062814D01*
X139844612Y-153062814D02*
X139963660Y-153003290D01*
X139963660Y-153003290D02*
X140201755Y-153003290D01*
X140201755Y-153003290D02*
X140320802Y-153062814D01*
X139785088Y-153777100D02*
X139904136Y-153836623D01*
X139904136Y-153836623D02*
X140201755Y-153836623D01*
X140201755Y-153836623D02*
X140320802Y-153777100D01*
X140320802Y-153777100D02*
X140380326Y-153658052D01*
X140380326Y-153658052D02*
X140380326Y-153539004D01*
X140380326Y-153539004D02*
X140320802Y-153419957D01*
X140320802Y-153419957D02*
X140201755Y-153360433D01*
X140201755Y-153360433D02*
X139904136Y-153360433D01*
X139904136Y-153360433D02*
X139785088Y-153300909D01*
X139189850Y-153836623D02*
X139189850Y-153003290D01*
X139189850Y-153122338D02*
X139130327Y-153062814D01*
X139130327Y-153062814D02*
X139011279Y-153003290D01*
X139011279Y-153003290D02*
X138832708Y-153003290D01*
X138832708Y-153003290D02*
X138713660Y-153062814D01*
X138713660Y-153062814D02*
X138654136Y-153181861D01*
X138654136Y-153181861D02*
X138654136Y-153836623D01*
X138654136Y-153181861D02*
X138594612Y-153062814D01*
X138594612Y-153062814D02*
X138475565Y-153003290D01*
X138475565Y-153003290D02*
X138296993Y-153003290D01*
X138296993Y-153003290D02*
X138177946Y-153062814D01*
X138177946Y-153062814D02*
X138118422Y-153181861D01*
X138118422Y-153181861D02*
X138118422Y-153836623D01*
X137046993Y-153777100D02*
X137166041Y-153836623D01*
X137166041Y-153836623D02*
X137404136Y-153836623D01*
X137404136Y-153836623D02*
X137523183Y-153777100D01*
X137523183Y-153777100D02*
X137582707Y-153658052D01*
X137582707Y-153658052D02*
X137582707Y-153181861D01*
X137582707Y-153181861D02*
X137523183Y-153062814D01*
X137523183Y-153062814D02*
X137404136Y-153003290D01*
X137404136Y-153003290D02*
X137166041Y-153003290D01*
X137166041Y-153003290D02*
X137046993Y-153062814D01*
X137046993Y-153062814D02*
X136987469Y-153181861D01*
X136987469Y-153181861D02*
X136987469Y-153300909D01*
X136987469Y-153300909D02*
X137582707Y-153419957D01*
X136451754Y-153836623D02*
X136451754Y-153003290D01*
X136451754Y-153241385D02*
X136392231Y-153122338D01*
X136392231Y-153122338D02*
X136332707Y-153062814D01*
X136332707Y-153062814D02*
X136213659Y-153003290D01*
X136213659Y-153003290D02*
X136094612Y-153003290D01*
X135142230Y-153836623D02*
X135142230Y-153181861D01*
X135142230Y-153181861D02*
X135201754Y-153062814D01*
X135201754Y-153062814D02*
X135320802Y-153003290D01*
X135320802Y-153003290D02*
X135558897Y-153003290D01*
X135558897Y-153003290D02*
X135677944Y-153062814D01*
X135142230Y-153777100D02*
X135261278Y-153836623D01*
X135261278Y-153836623D02*
X135558897Y-153836623D01*
X135558897Y-153836623D02*
X135677944Y-153777100D01*
X135677944Y-153777100D02*
X135737468Y-153658052D01*
X135737468Y-153658052D02*
X135737468Y-153539004D01*
X135737468Y-153539004D02*
X135677944Y-153419957D01*
X135677944Y-153419957D02*
X135558897Y-153360433D01*
X135558897Y-153360433D02*
X135261278Y-153360433D01*
X135261278Y-153360433D02*
X135142230Y-153300909D01*
D10*
X109219048Y-152073866D02*
X109980953Y-152073866D01*
X104519048Y-152073866D02*
X105280953Y-152073866D01*
X104900000Y-152454819D02*
X104900000Y-151692914D01*
D12*
X142116041Y-137946147D02*
X142235088Y-137886623D01*
X142235088Y-137886623D02*
X142413660Y-137886623D01*
X142413660Y-137886623D02*
X142592231Y-137946147D01*
X142592231Y-137946147D02*
X142711279Y-138065195D01*
X142711279Y-138065195D02*
X142770802Y-138184242D01*
X142770802Y-138184242D02*
X142830326Y-138422338D01*
X142830326Y-138422338D02*
X142830326Y-138600909D01*
X142830326Y-138600909D02*
X142770802Y-138839004D01*
X142770802Y-138839004D02*
X142711279Y-138958052D01*
X142711279Y-138958052D02*
X142592231Y-139077100D01*
X142592231Y-139077100D02*
X142413660Y-139136623D01*
X142413660Y-139136623D02*
X142294612Y-139136623D01*
X142294612Y-139136623D02*
X142116041Y-139077100D01*
X142116041Y-139077100D02*
X142056517Y-139017576D01*
X142056517Y-139017576D02*
X142056517Y-138600909D01*
X142056517Y-138600909D02*
X142294612Y-138600909D01*
X141520802Y-139136623D02*
X141520802Y-138303290D01*
X141520802Y-137886623D02*
X141580326Y-137946147D01*
X141580326Y-137946147D02*
X141520802Y-138005671D01*
X141520802Y-138005671D02*
X141461279Y-137946147D01*
X141461279Y-137946147D02*
X141520802Y-137886623D01*
X141520802Y-137886623D02*
X141520802Y-138005671D01*
X141104136Y-138303290D02*
X140627945Y-138303290D01*
X140925564Y-137886623D02*
X140925564Y-138958052D01*
X140925564Y-138958052D02*
X140866041Y-139077100D01*
X140866041Y-139077100D02*
X140746993Y-139136623D01*
X140746993Y-139136623D02*
X140627945Y-139136623D01*
X140211278Y-139136623D02*
X140211278Y-137886623D01*
X140211278Y-138481861D02*
X139496993Y-138481861D01*
X139496993Y-139136623D02*
X139496993Y-137886623D01*
X138366040Y-138303290D02*
X138366040Y-139136623D01*
X138901754Y-138303290D02*
X138901754Y-138958052D01*
X138901754Y-138958052D02*
X138842231Y-139077100D01*
X138842231Y-139077100D02*
X138723183Y-139136623D01*
X138723183Y-139136623D02*
X138544612Y-139136623D01*
X138544612Y-139136623D02*
X138425564Y-139077100D01*
X138425564Y-139077100D02*
X138366040Y-139017576D01*
X137770802Y-139136623D02*
X137770802Y-137886623D01*
X137770802Y-138362814D02*
X137651755Y-138303290D01*
X137651755Y-138303290D02*
X137413660Y-138303290D01*
X137413660Y-138303290D02*
X137294612Y-138362814D01*
X137294612Y-138362814D02*
X137235088Y-138422338D01*
X137235088Y-138422338D02*
X137175564Y-138541385D01*
X137175564Y-138541385D02*
X137175564Y-138898528D01*
X137175564Y-138898528D02*
X137235088Y-139017576D01*
X137235088Y-139017576D02*
X137294612Y-139077100D01*
X137294612Y-139077100D02*
X137413660Y-139136623D01*
X137413660Y-139136623D02*
X137651755Y-139136623D01*
X137651755Y-139136623D02*
X137770802Y-139077100D01*
X136639850Y-139017576D02*
X136580327Y-139077100D01*
X136580327Y-139077100D02*
X136639850Y-139136623D01*
X136639850Y-139136623D02*
X136699374Y-139077100D01*
X136699374Y-139077100D02*
X136639850Y-139017576D01*
X136639850Y-139017576D02*
X136639850Y-139136623D01*
X136639850Y-138362814D02*
X136580327Y-138422338D01*
X136580327Y-138422338D02*
X136639850Y-138481861D01*
X136639850Y-138481861D02*
X136699374Y-138422338D01*
X136699374Y-138422338D02*
X136639850Y-138362814D01*
X136639850Y-138362814D02*
X136639850Y-138481861D01*
X135092231Y-139136623D02*
X135092231Y-137886623D01*
X134556517Y-139136623D02*
X134556517Y-138481861D01*
X134556517Y-138481861D02*
X134616041Y-138362814D01*
X134616041Y-138362814D02*
X134735089Y-138303290D01*
X134735089Y-138303290D02*
X134913660Y-138303290D01*
X134913660Y-138303290D02*
X135032708Y-138362814D01*
X135032708Y-138362814D02*
X135092231Y-138422338D01*
X134139851Y-138303290D02*
X133663660Y-138303290D01*
X133961279Y-137886623D02*
X133961279Y-138958052D01*
X133961279Y-138958052D02*
X133901756Y-139077100D01*
X133901756Y-139077100D02*
X133782708Y-139136623D01*
X133782708Y-139136623D02*
X133663660Y-139136623D01*
X133425565Y-138303290D02*
X132949374Y-138303290D01*
X133246993Y-137886623D02*
X133246993Y-138958052D01*
X133246993Y-138958052D02*
X133187470Y-139077100D01*
X133187470Y-139077100D02*
X133068422Y-139136623D01*
X133068422Y-139136623D02*
X132949374Y-139136623D01*
X132532707Y-138303290D02*
X132532707Y-139553290D01*
X132532707Y-138362814D02*
X132413660Y-138303290D01*
X132413660Y-138303290D02*
X132175565Y-138303290D01*
X132175565Y-138303290D02*
X132056517Y-138362814D01*
X132056517Y-138362814D02*
X131996993Y-138422338D01*
X131996993Y-138422338D02*
X131937469Y-138541385D01*
X131937469Y-138541385D02*
X131937469Y-138898528D01*
X131937469Y-138898528D02*
X131996993Y-139017576D01*
X131996993Y-139017576D02*
X132056517Y-139077100D01*
X132056517Y-139077100D02*
X132175565Y-139136623D01*
X132175565Y-139136623D02*
X132413660Y-139136623D01*
X132413660Y-139136623D02*
X132532707Y-139077100D01*
X131461279Y-139077100D02*
X131342232Y-139136623D01*
X131342232Y-139136623D02*
X131104136Y-139136623D01*
X131104136Y-139136623D02*
X130985089Y-139077100D01*
X130985089Y-139077100D02*
X130925565Y-138958052D01*
X130925565Y-138958052D02*
X130925565Y-138898528D01*
X130925565Y-138898528D02*
X130985089Y-138779480D01*
X130985089Y-138779480D02*
X131104136Y-138719957D01*
X131104136Y-138719957D02*
X131282708Y-138719957D01*
X131282708Y-138719957D02*
X131401755Y-138660433D01*
X131401755Y-138660433D02*
X131461279Y-138541385D01*
X131461279Y-138541385D02*
X131461279Y-138481861D01*
X131461279Y-138481861D02*
X131401755Y-138362814D01*
X131401755Y-138362814D02*
X131282708Y-138303290D01*
X131282708Y-138303290D02*
X131104136Y-138303290D01*
X131104136Y-138303290D02*
X130985089Y-138362814D01*
X130389850Y-139017576D02*
X130330327Y-139077100D01*
X130330327Y-139077100D02*
X130389850Y-139136623D01*
X130389850Y-139136623D02*
X130449374Y-139077100D01*
X130449374Y-139077100D02*
X130389850Y-139017576D01*
X130389850Y-139017576D02*
X130389850Y-139136623D01*
X130389850Y-138362814D02*
X130330327Y-138422338D01*
X130330327Y-138422338D02*
X130389850Y-138481861D01*
X130389850Y-138481861D02*
X130449374Y-138422338D01*
X130449374Y-138422338D02*
X130389850Y-138362814D01*
X130389850Y-138362814D02*
X130389850Y-138481861D01*
X128901755Y-137827100D02*
X129973184Y-139434242D01*
X127592231Y-137827100D02*
X128663660Y-139434242D01*
X126639850Y-138303290D02*
X126639850Y-139315195D01*
X126639850Y-139315195D02*
X126699374Y-139434242D01*
X126699374Y-139434242D02*
X126758898Y-139493766D01*
X126758898Y-139493766D02*
X126877945Y-139553290D01*
X126877945Y-139553290D02*
X127056517Y-139553290D01*
X127056517Y-139553290D02*
X127175564Y-139493766D01*
X126639850Y-139077100D02*
X126758898Y-139136623D01*
X126758898Y-139136623D02*
X126996993Y-139136623D01*
X126996993Y-139136623D02*
X127116041Y-139077100D01*
X127116041Y-139077100D02*
X127175564Y-139017576D01*
X127175564Y-139017576D02*
X127235088Y-138898528D01*
X127235088Y-138898528D02*
X127235088Y-138541385D01*
X127235088Y-138541385D02*
X127175564Y-138422338D01*
X127175564Y-138422338D02*
X127116041Y-138362814D01*
X127116041Y-138362814D02*
X126996993Y-138303290D01*
X126996993Y-138303290D02*
X126758898Y-138303290D01*
X126758898Y-138303290D02*
X126639850Y-138362814D01*
X126044612Y-139136623D02*
X126044612Y-138303290D01*
X126044612Y-137886623D02*
X126104136Y-137946147D01*
X126104136Y-137946147D02*
X126044612Y-138005671D01*
X126044612Y-138005671D02*
X125985089Y-137946147D01*
X125985089Y-137946147D02*
X126044612Y-137886623D01*
X126044612Y-137886623D02*
X126044612Y-138005671D01*
X125627946Y-138303290D02*
X125151755Y-138303290D01*
X125449374Y-137886623D02*
X125449374Y-138958052D01*
X125449374Y-138958052D02*
X125389851Y-139077100D01*
X125389851Y-139077100D02*
X125270803Y-139136623D01*
X125270803Y-139136623D02*
X125151755Y-139136623D01*
X124735088Y-139136623D02*
X124735088Y-137886623D01*
X124199374Y-139136623D02*
X124199374Y-138481861D01*
X124199374Y-138481861D02*
X124258898Y-138362814D01*
X124258898Y-138362814D02*
X124377946Y-138303290D01*
X124377946Y-138303290D02*
X124556517Y-138303290D01*
X124556517Y-138303290D02*
X124675565Y-138362814D01*
X124675565Y-138362814D02*
X124735088Y-138422338D01*
X123068422Y-138303290D02*
X123068422Y-139136623D01*
X123604136Y-138303290D02*
X123604136Y-138958052D01*
X123604136Y-138958052D02*
X123544613Y-139077100D01*
X123544613Y-139077100D02*
X123425565Y-139136623D01*
X123425565Y-139136623D02*
X123246994Y-139136623D01*
X123246994Y-139136623D02*
X123127946Y-139077100D01*
X123127946Y-139077100D02*
X123068422Y-139017576D01*
X122473184Y-139136623D02*
X122473184Y-137886623D01*
X122473184Y-138362814D02*
X122354137Y-138303290D01*
X122354137Y-138303290D02*
X122116042Y-138303290D01*
X122116042Y-138303290D02*
X121996994Y-138362814D01*
X121996994Y-138362814D02*
X121937470Y-138422338D01*
X121937470Y-138422338D02*
X121877946Y-138541385D01*
X121877946Y-138541385D02*
X121877946Y-138898528D01*
X121877946Y-138898528D02*
X121937470Y-139017576D01*
X121937470Y-139017576D02*
X121996994Y-139077100D01*
X121996994Y-139077100D02*
X122116042Y-139136623D01*
X122116042Y-139136623D02*
X122354137Y-139136623D01*
X122354137Y-139136623D02*
X122473184Y-139077100D01*
X121342232Y-139017576D02*
X121282709Y-139077100D01*
X121282709Y-139077100D02*
X121342232Y-139136623D01*
X121342232Y-139136623D02*
X121401756Y-139077100D01*
X121401756Y-139077100D02*
X121342232Y-139017576D01*
X121342232Y-139017576D02*
X121342232Y-139136623D01*
X120211280Y-139077100D02*
X120330328Y-139136623D01*
X120330328Y-139136623D02*
X120568423Y-139136623D01*
X120568423Y-139136623D02*
X120687471Y-139077100D01*
X120687471Y-139077100D02*
X120746994Y-139017576D01*
X120746994Y-139017576D02*
X120806518Y-138898528D01*
X120806518Y-138898528D02*
X120806518Y-138541385D01*
X120806518Y-138541385D02*
X120746994Y-138422338D01*
X120746994Y-138422338D02*
X120687471Y-138362814D01*
X120687471Y-138362814D02*
X120568423Y-138303290D01*
X120568423Y-138303290D02*
X120330328Y-138303290D01*
X120330328Y-138303290D02*
X120211280Y-138362814D01*
X119496994Y-139136623D02*
X119616042Y-139077100D01*
X119616042Y-139077100D02*
X119675565Y-139017576D01*
X119675565Y-139017576D02*
X119735089Y-138898528D01*
X119735089Y-138898528D02*
X119735089Y-138541385D01*
X119735089Y-138541385D02*
X119675565Y-138422338D01*
X119675565Y-138422338D02*
X119616042Y-138362814D01*
X119616042Y-138362814D02*
X119496994Y-138303290D01*
X119496994Y-138303290D02*
X119318423Y-138303290D01*
X119318423Y-138303290D02*
X119199375Y-138362814D01*
X119199375Y-138362814D02*
X119139851Y-138422338D01*
X119139851Y-138422338D02*
X119080327Y-138541385D01*
X119080327Y-138541385D02*
X119080327Y-138898528D01*
X119080327Y-138898528D02*
X119139851Y-139017576D01*
X119139851Y-139017576D02*
X119199375Y-139077100D01*
X119199375Y-139077100D02*
X119318423Y-139136623D01*
X119318423Y-139136623D02*
X119496994Y-139136623D01*
X118544613Y-139136623D02*
X118544613Y-138303290D01*
X118544613Y-138422338D02*
X118485090Y-138362814D01*
X118485090Y-138362814D02*
X118366042Y-138303290D01*
X118366042Y-138303290D02*
X118187471Y-138303290D01*
X118187471Y-138303290D02*
X118068423Y-138362814D01*
X118068423Y-138362814D02*
X118008899Y-138481861D01*
X118008899Y-138481861D02*
X118008899Y-139136623D01*
X118008899Y-138481861D02*
X117949375Y-138362814D01*
X117949375Y-138362814D02*
X117830328Y-138303290D01*
X117830328Y-138303290D02*
X117651756Y-138303290D01*
X117651756Y-138303290D02*
X117532709Y-138362814D01*
X117532709Y-138362814D02*
X117473185Y-138481861D01*
X117473185Y-138481861D02*
X117473185Y-139136623D01*
X115985089Y-137827100D02*
X117056518Y-139434242D01*
X115568422Y-139136623D02*
X115568422Y-137886623D01*
X115032708Y-139136623D02*
X115032708Y-138481861D01*
X115032708Y-138481861D02*
X115092232Y-138362814D01*
X115092232Y-138362814D02*
X115211280Y-138303290D01*
X115211280Y-138303290D02*
X115389851Y-138303290D01*
X115389851Y-138303290D02*
X115508899Y-138362814D01*
X115508899Y-138362814D02*
X115568422Y-138422338D01*
X113901756Y-139136623D02*
X113901756Y-138481861D01*
X113901756Y-138481861D02*
X113961280Y-138362814D01*
X113961280Y-138362814D02*
X114080328Y-138303290D01*
X114080328Y-138303290D02*
X114318423Y-138303290D01*
X114318423Y-138303290D02*
X114437470Y-138362814D01*
X113901756Y-139077100D02*
X114020804Y-139136623D01*
X114020804Y-139136623D02*
X114318423Y-139136623D01*
X114318423Y-139136623D02*
X114437470Y-139077100D01*
X114437470Y-139077100D02*
X114496994Y-138958052D01*
X114496994Y-138958052D02*
X114496994Y-138839004D01*
X114496994Y-138839004D02*
X114437470Y-138719957D01*
X114437470Y-138719957D02*
X114318423Y-138660433D01*
X114318423Y-138660433D02*
X114020804Y-138660433D01*
X114020804Y-138660433D02*
X113901756Y-138600909D01*
X113306518Y-139136623D02*
X113306518Y-138303290D01*
X113306518Y-138541385D02*
X113246995Y-138422338D01*
X113246995Y-138422338D02*
X113187471Y-138362814D01*
X113187471Y-138362814D02*
X113068423Y-138303290D01*
X113068423Y-138303290D02*
X112949376Y-138303290D01*
X112532708Y-139136623D02*
X112532708Y-138303290D01*
X112532708Y-138541385D02*
X112473185Y-138422338D01*
X112473185Y-138422338D02*
X112413661Y-138362814D01*
X112413661Y-138362814D02*
X112294613Y-138303290D01*
X112294613Y-138303290D02*
X112175566Y-138303290D01*
X111758898Y-139136623D02*
X111758898Y-138303290D01*
X111758898Y-137886623D02*
X111818422Y-137946147D01*
X111818422Y-137946147D02*
X111758898Y-138005671D01*
X111758898Y-138005671D02*
X111699375Y-137946147D01*
X111699375Y-137946147D02*
X111758898Y-137886623D01*
X111758898Y-137886623D02*
X111758898Y-138005671D01*
X111223184Y-139077100D02*
X111104137Y-139136623D01*
X111104137Y-139136623D02*
X110866041Y-139136623D01*
X110866041Y-139136623D02*
X110746994Y-139077100D01*
X110746994Y-139077100D02*
X110687470Y-138958052D01*
X110687470Y-138958052D02*
X110687470Y-138898528D01*
X110687470Y-138898528D02*
X110746994Y-138779480D01*
X110746994Y-138779480D02*
X110866041Y-138719957D01*
X110866041Y-138719957D02*
X111044613Y-138719957D01*
X111044613Y-138719957D02*
X111163660Y-138660433D01*
X111163660Y-138660433D02*
X111223184Y-138541385D01*
X111223184Y-138541385D02*
X111223184Y-138481861D01*
X111223184Y-138481861D02*
X111163660Y-138362814D01*
X111163660Y-138362814D02*
X111044613Y-138303290D01*
X111044613Y-138303290D02*
X110866041Y-138303290D01*
X110866041Y-138303290D02*
X110746994Y-138362814D01*
X109973184Y-139136623D02*
X110092232Y-139077100D01*
X110092232Y-139077100D02*
X110151755Y-138958052D01*
X110151755Y-138958052D02*
X110151755Y-137886623D01*
X108961279Y-139136623D02*
X108961279Y-138481861D01*
X108961279Y-138481861D02*
X109020803Y-138362814D01*
X109020803Y-138362814D02*
X109139851Y-138303290D01*
X109139851Y-138303290D02*
X109377946Y-138303290D01*
X109377946Y-138303290D02*
X109496993Y-138362814D01*
X108961279Y-139077100D02*
X109080327Y-139136623D01*
X109080327Y-139136623D02*
X109377946Y-139136623D01*
X109377946Y-139136623D02*
X109496993Y-139077100D01*
X109496993Y-139077100D02*
X109556517Y-138958052D01*
X109556517Y-138958052D02*
X109556517Y-138839004D01*
X109556517Y-138839004D02*
X109496993Y-138719957D01*
X109496993Y-138719957D02*
X109377946Y-138660433D01*
X109377946Y-138660433D02*
X109080327Y-138660433D01*
X109080327Y-138660433D02*
X108961279Y-138600909D01*
X108366041Y-139136623D02*
X108366041Y-137886623D01*
X108366041Y-138362814D02*
X108246994Y-138303290D01*
X108246994Y-138303290D02*
X108008899Y-138303290D01*
X108008899Y-138303290D02*
X107889851Y-138362814D01*
X107889851Y-138362814D02*
X107830327Y-138422338D01*
X107830327Y-138422338D02*
X107770803Y-138541385D01*
X107770803Y-138541385D02*
X107770803Y-138898528D01*
X107770803Y-138898528D02*
X107830327Y-139017576D01*
X107830327Y-139017576D02*
X107889851Y-139077100D01*
X107889851Y-139077100D02*
X108008899Y-139136623D01*
X108008899Y-139136623D02*
X108246994Y-139136623D01*
X108246994Y-139136623D02*
X108366041Y-139077100D01*
X107235089Y-138660433D02*
X106282709Y-138660433D01*
X105687470Y-139136623D02*
X105687470Y-137886623D01*
X105687470Y-138362814D02*
X105568423Y-138303290D01*
X105568423Y-138303290D02*
X105330328Y-138303290D01*
X105330328Y-138303290D02*
X105211280Y-138362814D01*
X105211280Y-138362814D02*
X105151756Y-138422338D01*
X105151756Y-138422338D02*
X105092232Y-138541385D01*
X105092232Y-138541385D02*
X105092232Y-138898528D01*
X105092232Y-138898528D02*
X105151756Y-139017576D01*
X105151756Y-139017576D02*
X105211280Y-139077100D01*
X105211280Y-139077100D02*
X105330328Y-139136623D01*
X105330328Y-139136623D02*
X105568423Y-139136623D01*
X105568423Y-139136623D02*
X105687470Y-139077100D01*
X104556518Y-139136623D02*
X104556518Y-138303290D01*
X104556518Y-138541385D02*
X104496995Y-138422338D01*
X104496995Y-138422338D02*
X104437471Y-138362814D01*
X104437471Y-138362814D02*
X104318423Y-138303290D01*
X104318423Y-138303290D02*
X104199376Y-138303290D01*
X103604137Y-139136623D02*
X103723185Y-139077100D01*
X103723185Y-139077100D02*
X103782708Y-139017576D01*
X103782708Y-139017576D02*
X103842232Y-138898528D01*
X103842232Y-138898528D02*
X103842232Y-138541385D01*
X103842232Y-138541385D02*
X103782708Y-138422338D01*
X103782708Y-138422338D02*
X103723185Y-138362814D01*
X103723185Y-138362814D02*
X103604137Y-138303290D01*
X103604137Y-138303290D02*
X103425566Y-138303290D01*
X103425566Y-138303290D02*
X103306518Y-138362814D01*
X103306518Y-138362814D02*
X103246994Y-138422338D01*
X103246994Y-138422338D02*
X103187470Y-138541385D01*
X103187470Y-138541385D02*
X103187470Y-138898528D01*
X103187470Y-138898528D02*
X103246994Y-139017576D01*
X103246994Y-139017576D02*
X103306518Y-139077100D01*
X103306518Y-139077100D02*
X103425566Y-139136623D01*
X103425566Y-139136623D02*
X103604137Y-139136623D01*
X102770804Y-138303290D02*
X102532709Y-139136623D01*
X102532709Y-139136623D02*
X102294614Y-138541385D01*
X102294614Y-138541385D02*
X102056518Y-139136623D01*
X102056518Y-139136623D02*
X101818423Y-138303290D01*
X101342232Y-138303290D02*
X101342232Y-139136623D01*
X101342232Y-138422338D02*
X101282709Y-138362814D01*
X101282709Y-138362814D02*
X101163661Y-138303290D01*
X101163661Y-138303290D02*
X100985090Y-138303290D01*
X100985090Y-138303290D02*
X100866042Y-138362814D01*
X100866042Y-138362814D02*
X100806518Y-138481861D01*
X100806518Y-138481861D02*
X100806518Y-139136623D01*
X99318423Y-137827100D02*
X100389852Y-139434242D01*
X98485090Y-138481861D02*
X98901756Y-138481861D01*
X98901756Y-139136623D02*
X98901756Y-137886623D01*
X98901756Y-137886623D02*
X98306518Y-137886623D01*
X97830327Y-139136623D02*
X97830327Y-138303290D01*
X97830327Y-137886623D02*
X97889851Y-137946147D01*
X97889851Y-137946147D02*
X97830327Y-138005671D01*
X97830327Y-138005671D02*
X97770804Y-137946147D01*
X97770804Y-137946147D02*
X97830327Y-137886623D01*
X97830327Y-137886623D02*
X97830327Y-138005671D01*
X97056518Y-139136623D02*
X97175566Y-139077100D01*
X97175566Y-139077100D02*
X97235089Y-138958052D01*
X97235089Y-138958052D02*
X97235089Y-137886623D01*
X96044613Y-139136623D02*
X96044613Y-138481861D01*
X96044613Y-138481861D02*
X96104137Y-138362814D01*
X96104137Y-138362814D02*
X96223185Y-138303290D01*
X96223185Y-138303290D02*
X96461280Y-138303290D01*
X96461280Y-138303290D02*
X96580327Y-138362814D01*
X96044613Y-139077100D02*
X96163661Y-139136623D01*
X96163661Y-139136623D02*
X96461280Y-139136623D01*
X96461280Y-139136623D02*
X96580327Y-139077100D01*
X96580327Y-139077100D02*
X96639851Y-138958052D01*
X96639851Y-138958052D02*
X96639851Y-138839004D01*
X96639851Y-138839004D02*
X96580327Y-138719957D01*
X96580327Y-138719957D02*
X96461280Y-138660433D01*
X96461280Y-138660433D02*
X96163661Y-138660433D01*
X96163661Y-138660433D02*
X96044613Y-138600909D01*
X95449375Y-139136623D02*
X95449375Y-138303290D01*
X95449375Y-138422338D02*
X95389852Y-138362814D01*
X95389852Y-138362814D02*
X95270804Y-138303290D01*
X95270804Y-138303290D02*
X95092233Y-138303290D01*
X95092233Y-138303290D02*
X94973185Y-138362814D01*
X94973185Y-138362814D02*
X94913661Y-138481861D01*
X94913661Y-138481861D02*
X94913661Y-139136623D01*
X94913661Y-138481861D02*
X94854137Y-138362814D01*
X94854137Y-138362814D02*
X94735090Y-138303290D01*
X94735090Y-138303290D02*
X94556518Y-138303290D01*
X94556518Y-138303290D02*
X94437471Y-138362814D01*
X94437471Y-138362814D02*
X94377947Y-138481861D01*
X94377947Y-138481861D02*
X94377947Y-139136623D01*
X93306518Y-139077100D02*
X93425566Y-139136623D01*
X93425566Y-139136623D02*
X93663661Y-139136623D01*
X93663661Y-139136623D02*
X93782708Y-139077100D01*
X93782708Y-139077100D02*
X93842232Y-138958052D01*
X93842232Y-138958052D02*
X93842232Y-138481861D01*
X93842232Y-138481861D02*
X93782708Y-138362814D01*
X93782708Y-138362814D02*
X93663661Y-138303290D01*
X93663661Y-138303290D02*
X93425566Y-138303290D01*
X93425566Y-138303290D02*
X93306518Y-138362814D01*
X93306518Y-138362814D02*
X93246994Y-138481861D01*
X93246994Y-138481861D02*
X93246994Y-138600909D01*
X93246994Y-138600909D02*
X93842232Y-138719957D01*
X92711279Y-138303290D02*
X92711279Y-139136623D01*
X92711279Y-138422338D02*
X92651756Y-138362814D01*
X92651756Y-138362814D02*
X92532708Y-138303290D01*
X92532708Y-138303290D02*
X92354137Y-138303290D01*
X92354137Y-138303290D02*
X92235089Y-138362814D01*
X92235089Y-138362814D02*
X92175565Y-138481861D01*
X92175565Y-138481861D02*
X92175565Y-139136623D01*
X91758899Y-138303290D02*
X91282708Y-138303290D01*
X91580327Y-137886623D02*
X91580327Y-138958052D01*
X91580327Y-138958052D02*
X91520804Y-139077100D01*
X91520804Y-139077100D02*
X91401756Y-139136623D01*
X91401756Y-139136623D02*
X91282708Y-139136623D01*
X91163661Y-139255671D02*
X90211280Y-139255671D01*
X89913660Y-139136623D02*
X89913660Y-137886623D01*
X89913660Y-137886623D02*
X89616041Y-137886623D01*
X89616041Y-137886623D02*
X89437470Y-137946147D01*
X89437470Y-137946147D02*
X89318422Y-138065195D01*
X89318422Y-138065195D02*
X89258899Y-138184242D01*
X89258899Y-138184242D02*
X89199375Y-138422338D01*
X89199375Y-138422338D02*
X89199375Y-138600909D01*
X89199375Y-138600909D02*
X89258899Y-138839004D01*
X89258899Y-138839004D02*
X89318422Y-138958052D01*
X89318422Y-138958052D02*
X89437470Y-139077100D01*
X89437470Y-139077100D02*
X89616041Y-139136623D01*
X89616041Y-139136623D02*
X89913660Y-139136623D01*
X88663660Y-139136623D02*
X88663660Y-138303290D01*
X88663660Y-138541385D02*
X88604137Y-138422338D01*
X88604137Y-138422338D02*
X88544613Y-138362814D01*
X88544613Y-138362814D02*
X88425565Y-138303290D01*
X88425565Y-138303290D02*
X88306518Y-138303290D01*
X87711279Y-139136623D02*
X87830327Y-139077100D01*
X87830327Y-139077100D02*
X87889850Y-139017576D01*
X87889850Y-139017576D02*
X87949374Y-138898528D01*
X87949374Y-138898528D02*
X87949374Y-138541385D01*
X87949374Y-138541385D02*
X87889850Y-138422338D01*
X87889850Y-138422338D02*
X87830327Y-138362814D01*
X87830327Y-138362814D02*
X87711279Y-138303290D01*
X87711279Y-138303290D02*
X87532708Y-138303290D01*
X87532708Y-138303290D02*
X87413660Y-138362814D01*
X87413660Y-138362814D02*
X87354136Y-138422338D01*
X87354136Y-138422338D02*
X87294612Y-138541385D01*
X87294612Y-138541385D02*
X87294612Y-138898528D01*
X87294612Y-138898528D02*
X87354136Y-139017576D01*
X87354136Y-139017576D02*
X87413660Y-139077100D01*
X87413660Y-139077100D02*
X87532708Y-139136623D01*
X87532708Y-139136623D02*
X87711279Y-139136623D01*
X86758898Y-138303290D02*
X86758898Y-139553290D01*
X86758898Y-138362814D02*
X86639851Y-138303290D01*
X86639851Y-138303290D02*
X86401756Y-138303290D01*
X86401756Y-138303290D02*
X86282708Y-138362814D01*
X86282708Y-138362814D02*
X86223184Y-138422338D01*
X86223184Y-138422338D02*
X86163660Y-138541385D01*
X86163660Y-138541385D02*
X86163660Y-138898528D01*
X86163660Y-138898528D02*
X86223184Y-139017576D01*
X86223184Y-139017576D02*
X86282708Y-139077100D01*
X86282708Y-139077100D02*
X86401756Y-139136623D01*
X86401756Y-139136623D02*
X86639851Y-139136623D01*
X86639851Y-139136623D02*
X86758898Y-139077100D01*
X84973185Y-137946147D02*
X85092232Y-137886623D01*
X85092232Y-137886623D02*
X85270804Y-137886623D01*
X85270804Y-137886623D02*
X85449375Y-137946147D01*
X85449375Y-137946147D02*
X85568423Y-138065195D01*
X85568423Y-138065195D02*
X85627946Y-138184242D01*
X85627946Y-138184242D02*
X85687470Y-138422338D01*
X85687470Y-138422338D02*
X85687470Y-138600909D01*
X85687470Y-138600909D02*
X85627946Y-138839004D01*
X85627946Y-138839004D02*
X85568423Y-138958052D01*
X85568423Y-138958052D02*
X85449375Y-139077100D01*
X85449375Y-139077100D02*
X85270804Y-139136623D01*
X85270804Y-139136623D02*
X85151756Y-139136623D01*
X85151756Y-139136623D02*
X84973185Y-139077100D01*
X84973185Y-139077100D02*
X84913661Y-139017576D01*
X84913661Y-139017576D02*
X84913661Y-138600909D01*
X84913661Y-138600909D02*
X85151756Y-138600909D01*
X83901756Y-139077100D02*
X84020804Y-139136623D01*
X84020804Y-139136623D02*
X84258899Y-139136623D01*
X84258899Y-139136623D02*
X84377946Y-139077100D01*
X84377946Y-139077100D02*
X84437470Y-138958052D01*
X84437470Y-138958052D02*
X84437470Y-138481861D01*
X84437470Y-138481861D02*
X84377946Y-138362814D01*
X84377946Y-138362814D02*
X84258899Y-138303290D01*
X84258899Y-138303290D02*
X84020804Y-138303290D01*
X84020804Y-138303290D02*
X83901756Y-138362814D01*
X83901756Y-138362814D02*
X83842232Y-138481861D01*
X83842232Y-138481861D02*
X83842232Y-138600909D01*
X83842232Y-138600909D02*
X84437470Y-138719957D01*
X83306517Y-138303290D02*
X83306517Y-139136623D01*
X83306517Y-138422338D02*
X83246994Y-138362814D01*
X83246994Y-138362814D02*
X83127946Y-138303290D01*
X83127946Y-138303290D02*
X82949375Y-138303290D01*
X82949375Y-138303290D02*
X82830327Y-138362814D01*
X82830327Y-138362814D02*
X82770803Y-138481861D01*
X82770803Y-138481861D02*
X82770803Y-139136623D01*
%LPC*%
D13*
%TO.C,H4*%
X148144200Y-152583000D03*
%TD*%
%TO.C,H3*%
X63144200Y-152583000D03*
%TD*%
%TO.C,H2*%
X63144200Y-97583000D03*
%TD*%
%TO.C,H1*%
X148144200Y-97583000D03*
%TD*%
D14*
%TO.C,U1*%
X124311000Y-96294800D03*
X124311000Y-98834800D03*
X124311000Y-101374800D03*
X124311000Y-103914800D03*
X124311000Y-106454800D03*
X124311000Y-108994800D03*
D15*
X124311000Y-111534800D03*
X138535000Y-111534800D03*
D14*
X138535000Y-108994800D03*
X138535000Y-106454800D03*
X138535000Y-103914800D03*
X138535000Y-101374800D03*
X138535000Y-98834800D03*
X138535000Y-96294800D03*
%TD*%
D15*
%TO.C,U2*%
X121172400Y-132642100D03*
D14*
X123712400Y-132642100D03*
X126252400Y-132642100D03*
X128792400Y-132642100D03*
X131332400Y-132642100D03*
X133872400Y-132642100D03*
X136412400Y-132642100D03*
X138952400Y-132642100D03*
D15*
X138931200Y-125526700D03*
D14*
X138931200Y-122986700D03*
X138930400Y-120395900D03*
X136390400Y-120395900D03*
X133850400Y-120395900D03*
X131310400Y-120395900D03*
X128770400Y-120395900D03*
X126230400Y-120395900D03*
X123690400Y-120395900D03*
D15*
X121150400Y-120395900D03*
%TD*%
D16*
%TO.C,J5*%
X95700000Y-149000000D03*
X95700000Y-144000000D03*
D17*
X90700000Y-149000000D03*
X90700000Y-144000000D03*
%TD*%
D16*
%TO.C,J4*%
X141000000Y-149000000D03*
X141000000Y-144000000D03*
D17*
X136000000Y-149000000D03*
X136000000Y-144000000D03*
%TD*%
D18*
%TO.C,J3*%
X72730600Y-140131800D03*
D19*
X72730600Y-146431800D03*
D20*
X77530600Y-143031800D03*
%TD*%
D14*
%TO.C,U3*%
X98187200Y-119617800D03*
X100727200Y-119617800D03*
X103267200Y-119617800D03*
X105807200Y-119617800D03*
X108347200Y-119617800D03*
X110887200Y-119617800D03*
X113427200Y-119617800D03*
D15*
X115967200Y-119617800D03*
X115925600Y-110820200D03*
D14*
X113385600Y-110820200D03*
X110845600Y-110820200D03*
X108305600Y-110820200D03*
X105765600Y-110820200D03*
X103225600Y-110820200D03*
X100685600Y-110820200D03*
X98145600Y-110820200D03*
%TD*%
%LPD*%
M02*
